LuxiMono-Oblique.sfdir
StartChar: exclam
Encoding: 33 33 232
Width: 600
Flags: MW
HStem: 0 108<240 382 261 361> 703 20<397 493 493 493>
LayerCount: 2
Fore
SplineSet
240 0 m 1
 261 108 l 1
 382 108 l 1
 361 0 l 1
 240 0 l 1
311 205 m 1
 358 531 l 1
 397 723 l 1
 493 723 l 1
 454 531 l 1
 371 205 l 1
 311 205 l 1
EndSplineSet
EndChar
StartChar: quotedbl
Encoding: 34 34 255
Width: 600
Flags: W
LayerCount: 2
Fore
SplineSet
245 506 m 1
 274 771 l 1
 394 771 l 1
 317 506 l 1
 245 506 l 1
486 506 m 1
 515 771 l 1
 635 771 l 1
 558 506 l 1
 486 506 l 1
EndSplineSet
EndChar
StartChar: numbersign
Encoding: 35 35 257
Width: 600
Flags: MW
HStem: 0 20 217 61<90 178 63 205 90 244 271 371 464 575> 446 60<169 281 142 308 169 347 374 474 567 654> 703 20<405 472 472 472 598 665 665 665>
LayerCount: 2
Fore
SplineSet
80 0 m 1
 178 217 l 1
 63 217 l 1
 90 278 l 1
 205 278 l 1
 281 446 l 1
 142 446 l 1
 169 506 l 1
 308 506 l 1
 405 723 l 1
 472 723 l 1
 374 506 l 1
 501 506 l 1
 598 723 l 1
 665 723 l 1
 567 506 l 1
 681 506 l 1
 654 446 l 1
 540 446 l 1
 464 278 l 1
 603 278 l 1
 575 217 l 1
 437 217 l 1
 339 0 l 1
 273 0 l 1
 371 217 l 1
 244 217 l 1
 146 0 l 1
 80 0 l 1
271 278 m 1
 397 278 l 1
 474 446 l 1
 347 446 l 1
 271 278 l 1
EndSplineSet
EndChar
StartChar: dollar
Encoding: 36 36 214
Width: 600
Flags: MW
HStem: 0 20
VStem: 194 89<513.5 562 513.5 569.5> 459 90<203.5 231.5>
LayerCount: 2
Fore
SplineSet
246 -60 m 1
 257 0 l 1
 191 5 134 19 79 42 c 1
 108 188 l 1
 168 188 l 1
 162 91 l 1
 198 73 234 63 269 60 c 1
 326 341 l 1
 287 367 l 2
 224 408 194 456 194 513 c 0
 194 626 282 710 414 723 c 1
 426 783 l 1
 486 783 l 1
 475 723 l 1
 528 722 577 711 628 687 c 1
 600 549 l 1
 540 549 l 1
 547 645 l 1
 519 657 497 663 473 663 c 2
 462 663 l 1
 410 402 l 1
 448 379 l 2
 517 337 549 292 549 237 c 0
 549 170 517 106 460 58 c 0
 420 23 377 6 318 0 c 1
 306 -60 l 1
 246 -60 l 1
380 310 m 1
 330 60 l 1
 399 69 459 142 459 217 c 0
 459 246 443 269 409 291 c 2
 380 310 l 1
356 435 m 1
 402 663 l 1
 329 646 283 595 283 529 c 0
 283 498 299 473 333 450 c 2
 356 435 l 1
EndSplineSet
EndChar
StartChar: percent
Encoding: 37 37 278
Width: 600
Flags: W
HStem: -18 20 0 60<457 496.5 457 505> 301 60<496 536> 362 61<208 248 208 256.5> 663 60<247 287> 721 20<652 717 717 717>
VStem: 112 66<467.5 535.5 467.5 551> 317 65<549.5 617.5> 361 66<105.5 173.5 105.5 189> 566 65<187.5 255.5>
LayerCount: 2
Fore
SplineSet
26 -18 m 1x87
 652 741 l 1
 717 741 l 1
 89 -18 l 1
 26 -18 l 1x87
284 723 m 0x7b
 349 723 382 681 382 599 c 0
 382 469 304 362 209 362 c 0
 145 362 112 404 112 486 c 0
 112 616 190 723 284 723 c 0x7b
272 663 m 0
 222 663 178 581 178 490 c 0
 178 445 193 423 223 423 c 0
 273 423 317 504 317 595 c 0
 317 640 302 663 272 663 c 0
533 361 m 0
 598 361 631 319 631 237 c 0
 631 106 553 0 457 0 c 0
 394 0 361 42 361 124 c 0x78c0
 361 254 439 361 533 361 c 0
521 301 m 0
 471 301 427 219 427 128 c 0
 427 83 442 60 472 60 c 0
 521 60 566 142 566 233 c 0
 566 278 551 301 521 301 c 0
EndSplineSet
EndChar
StartChar: ampersand
Encoding: 38 38 249
Width: 600
Flags: W
HStem: -18 72<227 261> 0 20 681 61<397 437.5>
VStem: 65 90<131.5 207> 246 89<521 578 521 587.5> 466 88<595 647>
LayerCount: 2
Fore
SplineSet
455 0 m 1x7c
 420 54 l 1
 346 2 292 -18 230 -18 c 0x9c
 122 -18 65 39 65 148 c 0
 65 266 123 352 257 434 c 1
 250 467 246 495 246 521 c 0
 246 654 322 742 437 742 c 0
 514 742 554 706 554 636 c 0
 554 546 497 477 363 408 c 1
 399 298 431 219 463 162 c 1
 503 204 529 262 542 337 c 1
 494 337 l 1
 505 397 l 1
 664 397 l 1
 651 337 l 1
 616 337 l 1
 588 229 567 192 493 117 c 1
 536 60 l 1
 596 60 l 1
 584 0 l 1
 455 0 l 1x7c
392 101 m 1xbc
 348 176 311 266 276 383 c 1
 192 327 155 261 155 170 c 0
 155 93 191 54 263 54 c 0
 306 54 344 68 392 101 c 1xbc
346 458 m 1
 429 507 466 560 466 630 c 0
 466 664 452 681 423 681 c 0
 371 681 335 621 335 535 c 0
 335 507 339 479 345 461 c 0
 346 460 346 459 346 458 c 1
EndSplineSet
EndChar
StartChar: quotesingle
Encoding: 39 39 254
Width: 600
Flags: W
LayerCount: 2
Fore
SplineSet
358 470 m 1
 382 771 l 1
 527 771 l 1
 430 470 l 1
 358 470 l 1
EndSplineSet
EndChar
StartChar: parenleft
Encoding: 40 40 245
Width: 600
Flags: MW
VStem: 209 100<139 253 139 279.5>
LayerCount: 2
Fore
SplineSet
464 -84 m 1
 452 -145 l 1
 297 -115 209 12 209 202 c 0
 209 357 267 502 376 623 c 0
 453 707 529 750 635 771 c 1
 623 711 l 1
 537 686 478 640 420 556 c 0
 347 449 309 321 309 185 c 0
 309 93 328 23 367 -23 c 0
 393 -54 416 -68 464 -84 c 1
EndSplineSet
EndChar
StartChar: parenright
Encoding: 41 41 246
Width: 600
Flags: MW
VStem: 417 101<373 487.5>
LayerCount: 2
Fore
SplineSet
92 -145 m 1
 104 -84 l 1
 190 -59 249 -14 306 71 c 0
 379 178 417 305 417 441 c 0
 417 534 398 603 359 650 c 0
 334 680 311 695 263 711 c 1
 275 771 l 1
 430 740 518 615 518 424 c 0
 518 270 460 124 350 4 c 0
 274 -80 198 -124 92 -145 c 1
EndSplineSet
EndChar
StartChar: asterisk
Encoding: 42 42 253
Width: 600
Flags: MW
HStem: 703 20<398 494 494 494>
LayerCount: 2
Fore
SplineSet
285 300 m 1
 211 352 l 1
 352 484 l 1
 357 471 368 462 384 458 c 1
 285 300 l 1
184 524 m 1
 231 617 l 1
 373 543 l 1
 359 531 351 516 351 499 c 1
 184 524 l 1
386 552 m 1
 398 723 l 1
 494 723 l 1
 434 552 l 1
 423 556 417 558 411 558 c 0
 406 558 399 556 386 552 c 1
444 542 m 1
 618 617 l 1
 626 523 l 1
 450 500 l 1
 452 506 453 511 453 515 c 0
 453 526 450 535 444 542 c 1
443 300 m 1
 395 457 l 1
 413 459 427 467 440 481 c 1
 534 355 l 1
 443 300 l 1
EndSplineSet
EndChar
StartChar: plus
Encoding: 43 43 259
Width: 600
Flags: MW
HStem: 265 72<115 316 101 331 115 389 403 604>
LayerCount: 2
Fore
SplineSet
273 49 m 1
 316 265 l 1
 101 265 l 1
 115 337 l 1
 331 337 l 1
 374 553 l 1
 446 553 l 1
 403 337 l 1
 619 337 l 1
 604 265 l 1
 389 265 l 1
 346 49 l 1
 273 49 l 1
EndSplineSet
EndChar
StartChar: period
Encoding: 46 46 222
Width: 600
Flags: MW
HStem: 0 145<228 401 257 373>
LayerCount: 2
Fore
SplineSet
228 0 m 1
 257 145 l 1
 401 145 l 1
 373 0 l 1
 228 0 l 1
EndSplineSet
EndChar
StartChar: slash
Encoding: 47 47 240
Width: 600
Flags: W
LayerCount: 2
Fore
SplineSet
19 -145 m 1
 626 771 l 1
 706 771 l 1
 99 -145 l 1
 19 -145 l 1
EndSplineSet
EndChar
StartChar: zero
Encoding: 48 48 212
Width: 600
Flags: MW
HStem: -18 60<274 341> 681 60<400 469>
VStem: 106 99<153.5 248 153.5 297.5> 540 100<472.5 569>
LayerCount: 2
Fore
SplineSet
447 741 m 0
 576 741 640 658 640 493 c 0
 640 360 605 235 538 133 c 0
 472 31 391 -18 291 -18 c 0
 167 -18 106 64 106 230 c 0
 106 365 140 488 206 588 c 0
 274 691 353 741 447 741 c 0
434 681 m 0
 365 681 299 609 257 488 c 0
 226 398 205 287 205 209 c 0
 205 98 240 42 308 42 c 0
 376 42 440 108 482 218 c 0
 516 308 540 431 540 514 c 0
 540 624 504 681 434 681 c 0
EndSplineSet
EndChar
StartChar: one
Encoding: 49 49 203
Width: 600
Flags: MW
HStem: 0 60<55 284 67 284 380 585> 721 20<516 516>
LayerCount: 2
Fore
SplineSet
55 0 m 1
 67 60 l 1
 284 60 l 1
 400 641 l 1
 172 587 l 1
 184 647 l 1
 516 741 l 1
 380 60 l 1
 597 60 l 1
 585 0 l 1
 55 0 l 1
EndSplineSet
EndChar
StartChar: two
Encoding: 50 50 204
Width: 600
Flags: MW
HStem: 0 84<65 82 82 82 191 541> 681 60<415 455.5>
VStem: 530 103<542.5 614>
LayerCount: 2
Fore
SplineSet
65 0 m 1
 82 84 l 1
 131 146 181 195 239 240 c 2
 299 286 l 1
 369 341 l 2
 477 425 530 504 530 581 c 0
 530 647 492 681 419 681 c 0
 377 681 338 669 283 639 c 1
 248 524 l 1
 188 524 l 1
 222 695 l 1
 311 727 381 741 449 741 c 0
 566 741 633 686 633 589 c 0
 633 492 581 412 460 326 c 2
 411 291 l 2
 295 208 220 137 191 84 c 1
 558 84 l 1
 541 0 l 1
 65 0 l 1
EndSplineSet
EndChar
StartChar: three
Encoding: 51 51 205
Width: 600
Flags: W
HStem: -18 60<253.5 327.5 251 360> 681 60<401.5 442>
VStem: 469 102<178.5 274.5> 520 100<553.5 619>
LayerCount: 2
Fore
SplineSet
91 5 m 1xe0
 128 188 l 1
 188 188 l 1
 176 67 l 1
 202 50 231 42 271 42 c 0
 384 42 469 124 469 233 c 0xe0
 469 316 411 356 293 356 c 2
 227 356 l 1
 239 416 l 1
 295 416 l 2
 435 416 520 481 520 591 c 0
 520 647 477 681 407 681 c 0
 368 681 336 675 305 662 c 1
 279 560 l 1
 218 560 l 1
 250 715 l 1
 319 733 373 741 430 741 c 0
 557 741 620 695 620 603 c 0xd0
 620 504 556 429 440 390 c 1
 532 361 571 316 571 235 c 0
 571 92 443 -18 277 -18 c 0
 230 -18 174 -12 131 -3 c 2
 91 5 l 1xe0
EndSplineSet
EndChar
StartChar: four
Encoding: 52 52 206
Width: 600
Flags: MW
HStem: 0 60<240 372 457 541 228 372> 205 73<96 96 172 401 82 96 500 594> 703 20<493 589 589 589>
LayerCount: 2
Fore
SplineSet
401 205 m 1
 82 205 l 1
 96 278 l 1
 493 723 l 1
 589 723 l 1
 500 278 l 1
 608 278 l 1
 594 205 l 1
 485 205 l 1
 457 60 l 1
 553 60 l 1
 541 0 l 1
 228 0 l 1
 240 60 l 1
 372 60 l 1
 401 205 l 1
172 278 m 1
 415 278 l 1
 486 631 l 1
 172 278 l 1
EndSplineSet
EndChar
StartChar: five
Encoding: 53 53 207
Width: 600
Flags: W
HStem: -18 60<269 331.5 269 354> 0 20 389 60<331.5 343> 639 84<335 638 335 335>
VStem: 470 104<194.5 293>
LayerCount: 2
Fore
SplineSet
122 0 m 1x48
 153 157 l 1
 214 157 l 1
 206 60 l 1
 236 47 257 42 281 42 c 0
 382 42 470 139 470 250 c 0
 470 336 400 389 286 389 c 0
 265 389 241 387 214 383 c 1
 282 723 l 1
 655 723 l 1
 638 639 l 1
 335 639 l 1
 297 448 l 1
 303 448 l 1
 311 448 l 2
 317 449 329 449 334 449 c 0
 484 449 574 379 574 262 c 0
 574 108 438 -18 270 -18 c 0xb8
 232 -18 185 -12 122 0 c 1x48
EndSplineSet
EndChar
StartChar: six
Encoding: 54 54 208
Width: 600
Flags: MW
HStem: -18 60<299.5 384.5 299.5 392> 410 63<400.5 443> 681 60<438 512.5>
VStem: 115 99<146.5 250 146.5 263.5> 508 99<225 335>
LayerCount: 2
Fore
SplineSet
570 552 m 1
 579 654 l 1
 552 673 528 681 497 681 c 0
 374 681 280 570 239 378 c 1
 302 444 362 473 439 473 c 0
 544 473 607 407 607 297 c 0
 607 125 473 -18 311 -18 c 0
 186 -18 115 66 115 216 c 0
 115 311 140 422 181 510 c 0
 250 657 369 741 507 741 c 0
 553 741 595 732 661 706 c 1
 630 552 l 1
 570 552 l 1
410 410 m 0
 304 410 214 309 214 191 c 0
 214 102 263 42 336 42 c 0
 433 42 508 153 508 297 c 0
 508 373 476 410 410 410 c 0
EndSplineSet
EndChar
StartChar: seven
Encoding: 55 55 209
Width: 600
Flags: MW
HStem: 0 20 633 90<216 568 198 662 644 644>
LayerCount: 2
Fore
SplineSet
250 0 m 1
 129 0 l 1
 176 138 276 297 421 464 c 2
 500 554 l 1
 568 633 l 1
 198 633 l 1
 216 723 l 1
 662 723 l 1
 644 633 l 1
 589 575 l 2
 398 368 284 176 250 0 c 1
EndSplineSet
EndChar
StartChar: eight
Encoding: 56 56 210
Width: 600
Flags: W
HStem: -18 60<281.5 364 281.5 380.5> 681 60<400 469.5>
VStem: 95 97<120 186.5> 204 95<542 586> 482 107<155 210.5> 545 92<572.5 625.5>
LayerCount: 2
Fore
SplineSet
284 392 m 1xe8
 262 412 l 2
 222 448 204 484 204 527 c 0
 204 645 320 741 463 741 c 0
 570 741 637 691 637 609 c 0xd4
 637 536 603 486 498 408 c 2
 471 387 l 1
 499 365 l 2
 571 308 589 280 589 223 c 0
 589 87 462 -18 299 -18 c 0
 171 -18 95 41 95 142 c 0
 95 231 147 308 254 373 c 2
 284 392 l 1xe8
385 447 m 2
 421 421 l 1
 507 488 545 543 545 602 c 0
 545 649 501 681 438 681 c 0
 362 681 299 626 299 560 c 0
 299 524 325 490 385 447 c 2
412 297 m 2xe8
 326 363 l 1
 220 266 192 221 192 153 c 0
 192 87 244 42 319 42 c 0
 409 42 482 110 482 193 c 0
 482 228 461 259 412 297 c 2xe8
EndSplineSet
EndChar
StartChar: nine
Encoding: 57 57 211
Width: 600
Flags: MW
HStem: -18 60<232 307.5> 250 63<302 344.5> 682 60<361 446>
VStem: 138 99<388.5 499 388.5 512> 531 99<473.5 577.5>
LayerCount: 2
Fore
SplineSet
175 171 m 1
 166 69 l 1
 193 50 216 42 248 42 c 0
 371 42 464 152 506 345 c 1
 443 279 383 250 306 250 c 0
 200 250 138 315 138 426 c 0
 138 598 272 742 433 742 c 0
 559 742 630 657 630 507 c 0
 630 412 605 302 564 213 c 0
 494 65 377 -18 238 -18 c 0
 192 -18 150 -9 84 17 c 1
 115 171 l 1
 175 171 l 1
410 682 m 0
 312 682 237 571 237 427 c 0
 237 350 269 313 335 313 c 0
 441 313 531 414 531 533 c 0
 531 622 482 682 410 682 c 0
EndSplineSet
EndChar
StartChar: colon
Encoding: 58 58 223
Width: 600
Flags: MW
HStem: 0 145<228 401 257 373> 385 145<305 478 334 450>
LayerCount: 2
Fore
SplineSet
228 0 m 1
 257 145 l 1
 401 145 l 1
 373 0 l 1
 228 0 l 1
305 385 m 1
 334 530 l 1
 478 530 l 1
 450 385 l 1
 305 385 l 1
EndSplineSet
EndChar
StartChar: semicolon
Encoding: 59 59 227
Width: 600
Flags: MW
HStem: 0 20 385 145<304 478 333 449>
LayerCount: 2
Fore
SplineSet
227 0 m 1
 256 145 l 1
 401 145 l 1
 383 57 l 2
 355 -80 294 -149 196 -156 c 1
 206 -108 l 1
 252 -99 267 -79 287 0 c 1
 227 0 l 1
304 385 m 1
 333 530 l 1
 478 530 l 1
 449 385 l 1
 304 385 l 1
EndSplineSet
EndChar
StartChar: less
Encoding: 60 60 300
Width: 600
Flags: MW
HStem: 0 20
LayerCount: 2
Fore
SplineSet
552 0 m 1
 108 301 l 1
 672 603 l 1
 655 518 l 1
 249 301 l 1
 568 84 l 1
 552 0 l 1
EndSplineSet
EndChar
StartChar: equal
Encoding: 61 61 263
Width: 600
Flags: MW
HStem: 169 72<82 600 97 585> 362 72<121 639 135 624>
LayerCount: 2
Fore
SplineSet
82 169 m 1
 97 241 l 1
 600 241 l 1
 585 169 l 1
 82 169 l 1
121 362 m 1
 135 434 l 1
 639 434 l 1
 624 362 l 1
 121 362 l 1
EndSplineSet
EndChar
StartChar: greater
Encoding: 62 62 301
Width: 600
Flags: MW
HStem: 0 20
LayerCount: 2
Fore
SplineSet
48 0 m 1
 65 84 l 1
 471 301 l 1
 152 518 l 1
 169 603 l 1
 612 301 l 1
 48 0 l 1
EndSplineSet
EndChar
StartChar: question
Encoding: 63 63 234
Width: 600
Flags: MW
HStem: 0 108<203 345 225 324> 681 60<414.5 468>
VStem: 540 105<574.5 623>
LayerCount: 2
Fore
SplineSet
203 0 m 1
 225 108 l 1
 345 108 l 1
 324 0 l 1
 203 0 l 1
256 205 m 1
 262 234 l 2
 277 311 327 378 408 428 c 2
 445 451 l 2
 508 490 540 539 540 594 c 0
 540 652 504 681 432 681 c 0
 390 681 350 672 302 651 c 1
 264 524 l 1
 204 524 l 1
 241 708 l 1
 319 731 382 741 447 741 c 0
 579 741 645 696 645 607 c 0
 645 542 610 485 544 442 c 2
 512 421 l 2
 501 414 494 409 478 400 c 0
 393 348 378 328 358 235 c 2
 352 205 l 1
 256 205 l 1
EndSplineSet
EndChar
StartChar: at
Encoding: 64 64 256
Width: 600
Flags: MW
HStem: -18 60<302.5 353.5> 139 69<343 364> 530 45<464.5 506.5 464.5 506.5> 681 60<427.5 498>
VStem: 99 65<194.5 299> 246 74<252 298.5>
LayerCount: 2
Fore
SplineSet
477 73 m 1
 463 6 l 1
 409 -11 371 -18 336 -18 c 0
 269 -18 210 5 166 50 c 0
 119 98 99 154 99 235 c 0
 99 363 139 486 213 586 c 0
 288 689 377 741 478 741 c 0
 574 741 635 687 635 601 c 0
 635 576 631 541 624 509 c 2
 563 202 l 1
 620 202 l 1
 608 142 l 1
 491 142 l 1
 526 321 l 1
 515 321 l 1
 463 205 397 139 331 139 c 0
 275 139 246 180 246 259 c 0
 246 338 272 411 324 477 c 0
 375 542 433 575 496 575 c 0
 517 575 538 571 570 562 c 1
 570 574 l 2
 570 645 534 681 462 681 c 0
 382 681 312 638 253 553 c 0
 195 469 164 367 164 258 c 0
 164 123 233 42 349 42 c 0
 388 42 426 51 477 73 c 1
553 452 m 1
 563 507 l 1
 538 523 518 530 495 530 c 0
 404 530 320 407 320 273 c 0
 320 231 332 208 354 208 c 0
 399 208 459 281 553 452 c 1
EndSplineSet
EndChar
StartChar: B
Encoding: 66 66 134
Width: 600
Flags: W
HStem: 0 60<48 132 229 308 308 326 36 132> 663 60<181 253 168 482 349 349 349 447>
VStem: 482 102<169.5 261> 534 103<551.5 616>
LayerCount: 2
Fore
SplineSet
132 60 m 1xe0
 253 663 l 1
 168 663 l 1
 181 723 l 1
 482 723 l 2
 586 723 637 682 637 600 c 0xd0
 637 503 570 418 461 377 c 1
 547 353 584 309 584 227 c 0
 584 88 484 0 326 0 c 2
 36 0 l 1
 48 60 l 1
 132 60 l 1xe0
229 60 m 1xe0
 308 60 l 2
 422 60 482 116 482 223 c 0
 482 299 427 343 333 343 c 2
 286 343 l 1
 229 60 l 1xe0
297 404 m 1xd0
 345 404 l 2
 454 404 534 484 534 592 c 0
 534 640 506 663 447 663 c 2
 349 663 l 1
 297 404 l 1xd0
EndSplineSet
EndChar
StartChar: F
Encoding: 70 70 138
Width: 600
Flags: MW
HStem: 0 60<66 175 271 391 54 175> 319 60<335 468 323 480> 663 60<199 295 186 699 391 391 391 627>
LayerCount: 2
Fore
SplineSet
271 60 m 1
 404 60 l 1
 391 0 l 1
 54 0 l 1
 66 60 l 1
 175 60 l 1
 295 663 l 1
 186 663 l 1
 199 723 l 1
 699 723 l 1
 663 542 l 1
 603 542 l 1
 627 663 l 1
 391 663 l 1
 335 379 l 1
 480 379 l 1
 492 440 l 1
 552 440 l 1
 516 259 l 1
 456 259 l 1
 468 319 l 1
 323 319 l 1
 271 60 l 1
EndSplineSet
EndChar
StartChar: H
Encoding: 72 72 140
Width: 600
Flags: MW
HStem: 0 20 343 61<249 500 261 488> 703 20<175 373 373 373 516 715 715 715>
LayerCount: 2
Fore
SplineSet
249 343 m 1
 193 60 l 1
 241 60 l 1
 229 0 l 1
 30 0 l 1
 42 60 l 1
 96 60 l 1
 217 663 l 1
 162 663 l 1
 175 723 l 1
 373 723 l 1
 362 663 l 1
 313 663 l 1
 261 404 l 1
 500 404 l 1
 552 663 l 1
 504 663 l 1
 516 723 l 1
 715 723 l 1
 702 663 l 1
 648 663 l 1
 528 60 l 1
 582 60 l 1
 570 0 l 1
 371 0 l 1
 383 60 l 1
 431 60 l 1
 488 343 l 1
 249 343 l 1
EndSplineSet
EndChar
StartChar: J
Encoding: 74 74 142
Width: 600
Flags: MW
HStem: -18 60<222 271 222 302.5> 663 60<286 467 275 703 564 564 564 690>
LayerCount: 2
Fore
SplineSet
57 15 m 1
 98 217 l 1
 158 217 l 1
 146 66 l 1
 182 49 208 42 236 42 c 0
 306 42 351 81 366 157 c 2
 467 663 l 1
 275 663 l 1
 286 723 l 1
 703 723 l 1
 690 663 l 1
 564 663 l 1
 467 177 l 2
 439 38 371 -18 234 -18 c 0
 179 -18 130 -9 57 15 c 1
EndSplineSet
EndChar
StartChar: K
Encoding: 75 75 143
Width: 600
Flags: MW
HStem: 0 20 703 20<181 391 391 391 499 673 673 673>
LayerCount: 2
Fore
SplineSet
36 0 m 1
 48 60 l 1
 111 60 l 1
 232 663 l 1
 168 663 l 1
 181 723 l 1
 391 723 l 1
 379 663 l 1
 328 663 l 1
 269 369 l 1
 273 369 l 1
 542 663 l 1
 488 663 l 1
 499 723 l 1
 673 723 l 1
 661 663 l 1
 616 663 l 1
 369 396 l 1
 560 60 l 1
 597 60 l 1
 584 0 l 1
 377 0 l 1
 389 60 l 1
 443 60 l 1
 271 362 l 1
 268 362 l 1
 208 60 l 1
 268 60 l 1
 256 0 l 1
 36 0 l 1
EndSplineSet
EndChar
StartChar: L
Encoding: 76 76 144
Width: 600
Flags: W
HStem: 0 60<54 174 54 562 42 174> 0 66<272 515 272 562> 663 60<187 295 174 518 392 392 392 506>
LayerCount: 2
Fore
SplineSet
562 0 m 1x80
 42 0 l 1
 54 60 l 1
 174 60 l 1x80
 295 663 l 1
 174 663 l 1
 187 723 l 1
 518 723 l 1
 506 663 l 1
 392 663 l 1
 272 66 l 1
 515 66 l 1x60
 549 235 l 1
 609 235 l 1
 562 0 l 1x80
EndSplineSet
EndChar
StartChar: M
Encoding: 77 77 145
Width: 600
Flags: MW
HStem: 0 20 703 20<157 296 296 296 601 733 733 733>
LayerCount: 2
Fore
SplineSet
12 0 m 1
 24 60 l 1
 66 60 l 1
 187 663 l 1
 144 663 l 1
 157 723 l 1
 296 723 l 1
 345 226 l 1
 346 226 l 1
 601 723 l 1
 733 723 l 1
 720 663 l 1
 679 663 l 1
 558 60 l 1
 600 60 l 1
 588 0 l 1
 431 0 l 1
 443 60 l 1
 479 60 l 1
 577 551 l 1
 576 551 l 1
 343 95 l 1
 277 95 l 1
 229 570 l 1
 228 570 l 1
 127 60 l 1
 169 60 l 1
 157 0 l 1
 12 0 l 1
EndSplineSet
EndChar
StartChar: P
Encoding: 80 80 148
Width: 600
Flags: MW
HStem: 0 60<54 150 247 374 42 150> 663 60<187 271 174 509 367 367 367 466>
VStem: 558 106<562.5 605.5>
LayerCount: 2
Fore
SplineSet
293 292 m 1
 247 60 l 1
 385 60 l 1
 374 0 l 1
 42 0 l 1
 54 60 l 1
 150 60 l 1
 271 663 l 1
 174 663 l 1
 187 723 l 1
 509 723 l 2
 613 723 664 681 664 595 c 0
 664 530 639 462 592 403 c 0
 533 328 455 292 351 292 c 2
 293 292 l 1
305 353 m 1
 360 353 l 2
 474 353 558 447 558 576 c 0
 558 635 529 663 466 663 c 2
 367 663 l 1
 305 353 l 1
EndSplineSet
EndChar
StartChar: Q
Encoding: 81 81 149
Width: 600
Flags: MW
HStem: 681 60<404.5 476.5>
VStem: 92 101<161.5 281.5 161.5 312> 555 100<436.5 559 415 561.5>
LayerCount: 2
Fore
SplineSet
298 -18 m 1
 147 7 92 77 92 246 c 0
 92 378 128 494 200 593 c 0
 271 691 356 741 452 741 c 0
 579 741 655 642 655 476 c 0
 655 354 620 237 554 139 c 0
 507 70 458 29 386 -1 c 1
 432 -34 497 -60 582 -79 c 1
 555 -106 521 -133 485 -156 c 1
 422 -130 360 -85 298 -18 c 1
437 681 m 0
 372 681 315 634 266 542 c 0
 219 451 193 340 193 223 c 0
 193 100 231 42 310 42 c 0
 367 42 417 75 459 141 c 0
 519 235 555 372 555 501 c 0
 555 622 516 681 437 681 c 0
EndSplineSet
EndChar
StartChar: R
Encoding: 82 82 150
Width: 600
Flags: MW
HStem: 0 20 663 60<187 238 174 473 334 334 334 421>
VStem: 523 104<535.5 607>
LayerCount: 2
Fore
SplineSet
42 0 m 1
 54 60 l 1
 117 60 l 1
 238 663 l 1
 174 663 l 1
 187 723 l 1
 473 723 l 2
 575 723 627 676 627 584 c 0
 627 487 577 415 461 346 c 1
 557 60 l 1
 600 60 l 1
 588 0 l 1
 464 0 l 1
 362 316 l 1
 265 316 l 1
 214 60 l 1
 277 60 l 1
 265 0 l 1
 42 0 l 1
277 376 m 1
 325 376 l 2
 443 376 523 457 523 574 c 0
 523 640 496 663 421 663 c 2
 334 663 l 1
 277 376 l 1
EndSplineSet
EndChar
StartChar: S
Encoding: 83 83 151
Width: 600
Flags: MW
HStem: -18 60<285.5 353.5 285.5 369.5> 681 60<398 458>
VStem: 195 98<515.5 575.5 515.5 577> 478 100<167.5 227>
LayerCount: 2
Fore
SplineSet
80 30 m 1
 115 205 l 1
 176 205 l 1
 164 90 l 1
 223 56 264 42 307 42 c 0
 400 42 478 118 478 209 c 0
 478 245 454 275 401 306 c 2
 318 354 l 2
 224 409 195 445 195 507 c 0
 195 647 301 741 459 741 c 0
 519 741 572 730 633 705 c 1
 598 531 l 1
 538 531 l 1
 548 645 l 1
 511 670 477 681 439 681 c 0
 357 681 293 617 293 534 c 0
 293 497 308 480 383 434 c 2
 456 390 l 2
 557 329 578 303 578 240 c 0
 578 95 451 -18 288 -18 c 0
 219 -18 157 -4 80 30 c 1
EndSplineSet
EndChar
StartChar: T
Encoding: 84 84 152
Width: 600
Flags: MW
HStem: 0 60<125 264 137 264 360 475> 663 60<223 384 223 223 480 480 480 642>
LayerCount: 2
Fore
SplineSet
125 0 m 1
 137 60 l 1
 264 60 l 1
 384 663 l 1
 223 663 l 1
 196 531 l 1
 136 531 l 1
 174 723 l 1
 714 723 l 1
 676 531 l 1
 615 531 l 1
 642 663 l 1
 480 663 l 1
 360 60 l 1
 486 60 l 1
 475 0 l 1
 125 0 l 1
EndSplineSet
EndChar
StartChar: V
Encoding: 86 86 154
Width: 600
Flags: MW
HStem: 0 20 663 60<157 181 145 371 282 282 282 358 563 621 684 684 684 720>
LayerCount: 2
Fore
SplineSet
254 0 m 1
 181 663 l 1
 145 663 l 1
 157 723 l 1
 371 723 l 1
 358 663 l 1
 282 663 l 1
 341 116 l 1
 342 116 l 1
 621 663 l 1
 551 663 l 1
 563 723 l 1
 732 723 l 1
 720 663 l 1
 684 663 l 1
 346 0 l 1
 254 0 l 1
EndSplineSet
EndChar
StartChar: W
Encoding: 87 87 155
Width: 600
Flags: MW
HStem: 0 20 703 20<156 307 307 307 600 734 734 734>
LayerCount: 2
Fore
SplineSet
118 0 m 1
 168 663 l 1
 143 663 l 1
 156 723 l 1
 307 723 l 1
 295 663 l 1
 246 663 l 1
 207 137 l 1
 208 137 l 1
 394 614 l 1
 470 614 l 1
 466 139 l 1
 467 139 l 1
 637 663 l 1
 589 663 l 1
 600 723 l 1
 734 723 l 1
 722 663 l 1
 698 663 l 1
 482 0 l 1
 390 0 l 1
 396 475 l 1
 395 475 l 1
 210 0 l 1
 118 0 l 1
EndSplineSet
EndChar
StartChar: X
Encoding: 88 88 156
Width: 600
Flags: MW
HStem: 0 60<24 90 36 90 153 216 372 432 540 576> 703 20<169 374 374 374 544 721 721 721>
LayerCount: 2
Fore
SplineSet
24 0 m 1
 36 60 l 1
 90 60 l 1
 320 357 l 1
 205 663 l 1
 156 663 l 1
 169 723 l 1
 374 723 l 1
 362 663 l 1
 313 663 l 1
 405 419 l 1
 594 663 l 1
 532 663 l 1
 544 723 l 1
 721 723 l 1
 709 663 l 1
 657 663 l 1
 425 364 l 1
 540 60 l 1
 588 60 l 1
 576 0 l 1
 359 0 l 1
 372 60 l 1
 432 60 l 1
 341 302 l 1
 153 60 l 1
 228 60 l 1
 216 0 l 1
 24 0 l 1
EndSplineSet
EndChar
StartChar: Y
Encoding: 89 89 157
Width: 600
Flags: MW
HStem: 0 60<144 265 156 265 361 457> 663 60<158 188 146 384 300 300 300 372 548 608 677 677 677 720>
LayerCount: 2
Fore
SplineSet
144 0 m 1
 156 60 l 1
 265 60 l 1
 317 322 l 1
 188 663 l 1
 146 663 l 1
 158 723 l 1
 384 723 l 1
 372 663 l 1
 300 663 l 1
 400 397 l 1
 401 397 l 1
 608 663 l 1
 536 663 l 1
 548 723 l 1
 731 723 l 1
 720 663 l 1
 677 663 l 1
 414 323 l 1
 361 60 l 1
 469 60 l 1
 457 0 l 1
 144 0 l 1
EndSplineSet
EndChar
StartChar: Z
Encoding: 90 90 158
Width: 600
Flags: MW
HStem: 0 66<72 85 85 85 193 480> 663 60<274 546 274 274 654 654>
LayerCount: 2
Fore
SplineSet
72 0 m 1
 85 66 l 1
 546 663 l 1
 274 663 l 1
 247 530 l 1
 187 530 l 1
 226 723 l 1
 666 723 l 1
 654 663 l 1
 193 66 l 1
 480 66 l 1
 509 211 l 1
 570 211 l 1
 528 0 l 1
 72 0 l 1
EndSplineSet
EndChar
StartChar: bracketleft
Encoding: 91 91 247
Width: 600
Flags: MW
HStem: -145 60<260 429> 711 60<419 600 419 419>
LayerCount: 2
Fore
SplineSet
164 -145 m 1
 347 771 l 1
 612 771 l 1
 600 711 l 1
 419 711 l 1
 260 -85 l 1
 441 -85 l 1
 429 -145 l 1
 164 -145 l 1
EndSplineSet
EndChar
StartChar: backslash
Encoding: 92 92 280
Width: 600
Flags: W
LayerCount: 2
Fore
SplineSet
523 -145 m 1
 444 -145 l 1
 203 771 l 1
 283 771 l 1
 523 -145 l 1
EndSplineSet
EndChar
StartChar: bracketright
Encoding: 93 93 248
Width: 600
Flags: MW
HStem: -145 60<125 305 125 378 113 305> 711 60<296 465 284 561>
LayerCount: 2
Fore
SplineSet
378 -145 m 1
 113 -145 l 1
 125 -85 l 1
 305 -85 l 1
 465 711 l 1
 284 711 l 1
 296 771 l 1
 561 771 l 1
 378 -145 l 1
EndSplineSet
EndChar
StartChar: asciicircum
Encoding: 94 94 303
Width: 600
Flags: MW
HStem: 703 20<445 445>
LayerCount: 2
Fore
SplineSet
124 265 m 1
 445 723 l 1
 582 265 l 1
 501 265 l 1
 413 561 l 1
 205 265 l 1
 124 265 l 1
EndSplineSet
EndChar
StartChar: underscore
Encoding: 95 95 306
Width: 600
Flags: MW
HStem: -72 72<0 585 -15 600>
LayerCount: 2
Fore
SplineSet
0 0 m 1
 600 0 l 1
 585 -72 l 1
 -15 -72 l 1
 0 0 l 1
EndSplineSet
EndChar
StartChar: grave
Encoding: 96 96 285
Width: 600
Flags: W
LayerCount: 2
Fore
SplineSet
534 626 m 1
 473 626 l 1
 348 783 l 1
 459 783 l 1
 534 626 l 1
EndSplineSet
EndChar
StartChar: b
Encoding: 98 98 167
Width: 600
Flags: W
HStem: -12 72<290 343.5 290 384.5> 0 20 464 78<440 457.5>
VStem: 509 103<340.5 397.5>
LayerCount: 2
Fore
SplineSet
187 0 m 1x50
 90 0 l 1x70
 233 711 l 1
 172 711 l 1
 184 771 l 1
 341 771 l 1
 271 422 l 1
 345 506 406 542 474 542 c 0
 560 542 612 476 612 366 c 0
 612 154 473 -12 296 -12 c 0xb0
 267 -12 235 -9 187 0 c 1x50
257 349 m 1
 201 71 l 1
 248 63 278 60 302 60 c 0x90
 385 60 439 101 472 187 c 0
 494 243 509 316 509 365 c 0
 509 430 483 464 432 464 c 0
 376 464 322 429 257 349 c 1
EndSplineSet
EndChar
StartChar: d
Encoding: 100 100 169
Width: 600
Flags: W
HStem: -12 79<249.5 267.5> 0 20 470 72<364 417> 711 60<449 556 436 665>
VStem: 95 103<133.5 190.5 133.5 270>
LayerCount: 2
Fore
SplineSet
556 711 m 1xb8
 436 711 l 1
 449 771 l 1
 665 771 l 1
 523 60 l 1
 583 60 l 1
 571 0 l 1
 414 0 l 1x58
 436 108 l 1
 363 24 302 -12 233 -12 c 0
 147 -12 95 54 95 164 c 0
 95 376 234 542 413 542 c 0
 440 542 477 538 520 530 c 1
 556 711 l 1xb8
450 181 m 1xa8
 506 458 l 1
 462 466 429 470 405 470 c 0
 323 470 269 430 235 343 c 0
 213 289 198 215 198 166 c 0
 198 101 224 67 275 67 c 0
 331 67 385 101 450 181 c 1xa8
EndSplineSet
EndChar
StartChar: f
Encoding: 102 102 171
Width: 600
Flags: MW
HStem: 0 60<72 217 84 217 313 482> 452 66<176 295 162 308 405 608> 724 60<510.5 563.5>
LayerCount: 2
Fore
SplineSet
72 0 m 1
 84 60 l 1
 217 60 l 1
 295 452 l 1
 162 452 l 1
 176 518 l 1
 308 518 l 1
 320 576 l 2
 348 721 417 784 549 784 c 0
 607 784 657 772 718 744 c 1
 694 624 l 1
 634 624 l 1
 634 700 l 1
 602 717 578 724 549 724 c 0
 472 724 439 688 418 586 c 2
 405 518 l 1
 621 518 l 1
 608 452 l 1
 391 452 l 1
 313 60 l 1
 494 60 l 1
 482 0 l 1
 72 0 l 1
EndSplineSet
EndChar
StartChar: h
Encoding: 104 104 173
Width: 600
Flags: MW
HStem: 0 20 467 75<437 447.5>
VStem: 489 100<417.5 424.5>
LayerCount: 2
Fore
SplineSet
34 0 m 1
 46 60 l 1
 106 60 l 1
 237 711 l 1
 176 711 l 1
 188 771 l 1
 345 771 l 1
 276 428 l 1
 346 509 403 542 471 542 c 0
 549 542 589 503 589 428 c 0
 589 407 586 379 580 352 c 2
 522 60 l 1
 582 60 l 1
 570 0 l 1
 365 0 l 1
 377 60 l 1
 426 60 l 1
 482 342 l 2
 486 364 489 389 489 404 c 0
 489 445 468 467 427 467 c 0
 376 467 325 430 260 344 c 1
 202 60 l 1
 257 60 l 1
 245 0 l 1
 34 0 l 1
EndSplineSet
EndChar
StartChar: i
Encoding: 105 105 174
Width: 600
Flags: MW
HStem: 0 60<72 275 84 275 371 539> 469 61<178 356 166 465> 650 121<388 520 412 496>
LayerCount: 2
Fore
SplineSet
72 0 m 1
 84 60 l 1
 275 60 l 1
 356 469 l 1
 166 469 l 1
 178 530 l 1
 465 530 l 1
 371 60 l 1
 551 60 l 1
 539 0 l 1xe0
 72 0 l 1
388 650 m 1
 412 771 l 1
 520 771 l 1
 496 650 l 1
 388 650 l 1
EndSplineSet
EndChar
StartChar: j
Encoding: 106 106 175
Width: 600
Flags: MW
HStem: -206 61<182.5 239 182.5 257> 469 61<234 439 222 547> 650 121<468 601 493 577>
LayerCount: 2
Fore
SplineSet
44 -169 m 1
 75 -13 l 1
 135 -13 l 1
 129 -119 l 1
 149 -138 169 -145 196 -145 c 0
 282 -145 327 -87 357 61 c 2
 439 469 l 1
 222 469 l 1
 234 530 l 1
 547 530 l 1
 447 32 l 2
 417 -118 323 -206 191 -206 c 0
 144 -206 101 -195 44 -169 c 1
468 650 m 1
 493 771 l 1
 601 771 l 1
 577 650 l 1
 468 650 l 1
EndSplineSet
EndChar
StartChar: k
Encoding: 107 107 176
Width: 600
Flags: MW
HStem: 0 20 469 61<429 474 417 640 558 558 558 628>
LayerCount: 2
Fore
SplineSet
401 0 m 1
 412 60 l 1
 256 255 l 1
 244 255 l 1
 204 60 l 1
 253 60 l 1
 241 0 l 1
 36 0 l 1
 48 60 l 1
 108 60 l 1
 239 711 l 1
 178 711 l 1
 190 771 l 1
 347 771 l 1
 250 289 l 1
 263 289 l 1
 474 469 l 1
 417 469 l 1
 429 530 l 1
 640 530 l 1
 628 469 l 1
 558 469 l 1
 346 293 l 1
 537 60 l 1
 586 60 l 1
 574 0 l 1xc0
 401 0 l 1
EndSplineSet
EndChar
StartChar: l
Encoding: 108 108 177
Width: 600
Flags: MW
HStem: 0 60<72 275 84 275 371 539> 711 60<226 405 214 513>
LayerCount: 2
Fore
SplineSet
72 0 m 1
 84 60 l 1
 275 60 l 1
 405 711 l 1
 214 711 l 1
 226 771 l 1
 513 771 l 1
 371 60 l 1
 551 60 l 1
 539 0 l 1xc0
 72 0 l 1
EndSplineSet
EndChar
StartChar: m
Encoding: 109 109 178
Width: 600
Flags: W
HStem: 0 20 466 76 510 20<119 242 242 242>
VStem: 549 90<428.5 482.5>
LayerCount: 2
Fore
SplineSet
13 0 m 1xd0
 25 60 l 1
 61 60 l 1
 143 469 l 1
 107 469 l 1
 119 530 l 1
 242 530 l 1xb0
 222 429 l 1
 285 518 315 542 361 542 c 0
 406 542 429 514 429 459 c 0
 429 453 428 445 427 429 c 1
 476 509 517 542 568 542 c 0
 615 542 639 512 639 453 c 0
 639 439 638 426 634 408 c 2
 564 60 l 1
 600 60 l 1
 588 0 l 1
 465 0 l 1
 538 367 l 2
 546 407 549 423 549 434 c 0
 549 455 541 466 527 466 c 0
 513 466 495 455 474 433 c 0
 446 404 416 358 412 337 c 2
 356 60 l 1
 392 60 l 1
 381 0 l 1
 257 0 l 1
 335 389 l 2
 338 405 340 423 340 433 c 0
 340 455 332 467 318 467 c 0
 288 467 254 428 204 337 c 1
 149 60 l 1
 184 60 l 1
 173 0 l 1
 13 0 l 1xd0
EndSplineSet
EndChar
StartChar: p
Encoding: 112 112 181
Width: 600
Flags: W
HStem: -193 60<4 64 160 269 -8 64> -12 72<290.5 344 290.5 385> 0 20 464 78<441 458.5> 510 20<137 293 293 293>
VStem: 510 103<340.5 397.5>
LayerCount: 2
Fore
SplineSet
160 -133 m 1xa4
 281 -133 l 1
 269 -193 l 1
 -8 -193 l 1
 4 -133 l 1
 64 -133 l 1
 185 469 l 1
 124 469 l 1
 137 530 l 1
 293 530 l 1x8c
 271 422 l 1
 345 506 407 542 475 542 c 0
 561 542 613 476 613 366 c 0
 613 154 474 -12 296 -12 c 0x54
 268 -12 236 -8 187 0 c 1
 160 -133 l 1xa4
257 349 m 1x54
 201 71 l 1
 249 63 278 60 303 60 c 0
 385 60 440 101 473 187 c 0
 495 243 510 316 510 365 c 0
 510 430 484 464 433 464 c 0
 377 464 323 429 257 349 c 1x54
EndSplineSet
EndChar
StartChar: q
Encoding: 113 113 182
Width: 600
Flags: W
HStem: -193 61<267 388 484 533 256 388> -12 79<249.5 267.5> 470 72<364 417> 510 20<520 617 617 617>
VStem: 95 103<133.5 190.5 133.5 270>
LayerCount: 2
Fore
SplineSet
388 -132 m 1x98
 436 108 l 1
 363 24 302 -12 233 -12 c 0
 147 -12 95 54 95 164 c 0
 95 376 234 542 413 542 c 0xe8
 440 542 477 538 520 530 c 1
 617 530 l 1
 484 -132 l 1
 545 -132 l 1
 533 -193 l 1
 256 -193 l 1
 267 -132 l 1
 388 -132 l 1x98
450 181 m 1
 506 458 l 1
 462 466 429 470 405 470 c 0
 323 470 269 430 235 343 c 0
 213 289 198 215 198 166 c 0
 198 101 224 67 275 67 c 0
 331 67 385 101 450 181 c 1
EndSplineSet
EndChar
StartChar: t
Encoding: 116 116 185
Width: 600
Flags: MW
HStem: -12 72<358.5 366> 452 66<161 284 148 297 394 588>
LayerCount: 2
Fore
SplineSet
523 98 m 1
 509 30 l 1
 448 1 395 -12 337 -12 c 0
 255 -12 214 17 214 76 c 0
 214 95 216 115 223 146 c 2
 284 452 l 1
 148 452 l 1
 161 518 l 1
 297 518 l 1
 323 650 l 1
 420 650 l 1
 394 518 l 1
 601 518 l 1
 588 452 l 1
 380 452 l 1
 328 190 l 2
 321 157 317 126 317 112 c 0
 317 78 338 60 379 60 c 0
 416 60 457 71 523 98 c 1
EndSplineSet
EndChar
StartChar: v
Encoding: 118 118 187
Width: 600
Flags: MW
HStem: 0 20 469 61<133 157 121 351 261 261 261 339 500 566 631 631 631 667>
LayerCount: 2
Fore
SplineSet
251 0 m 1
 157 469 l 1
 121 469 l 1
 133 530 l 1
 351 530 l 1
 339 469 l 1
 261 469 l 1
 337 90 l 1
 338 90 l 1
 566 469 l 1
 488 469 l 1
 500 530 l 1
 679 530 l 1
 667 469 l 1
 631 469 l 1
 349 0 l 1
 251 0 l 1
EndSplineSet
EndChar
StartChar: w
Encoding: 119 119 188
Width: 600
Flags: MW
HStem: 0 20 510 20<117 269 269 269 563 695 695 695>
LayerCount: 2
Fore
SplineSet
118 0 m 1
 129 470 l 1
 105 470 l 1
 117 530 l 1
 269 530 l 1
 257 470 l 1
 215 470 l 1
 207 116 l 1
 209 116 l 1
 362 451 l 1
 443 451 l 1
 463 115 l 1
 464 115 l 1
 598 470 l 1
 550 470 l 1
 563 530 l 1
 695 530 l 1
 683 470 l 1
 659 470 l 1
 482 0 l 1
 388 0 l 1
 369 344 l 1
 368 344 l 1
 211 0 l 1
 118 0 l 1
EndSplineSet
EndChar
StartChar: x
Encoding: 120 120 189
Width: 600
Flags: MW
HStem: 0 20 510 20<135 349 349 349 510 687 687 687>
LayerCount: 2
Fore
SplineSet
29 0 m 1
 41 60 l 1
 101 60 l 1
 303 265 l 1
 183 469 l 1
 123 469 l 1
 135 530 l 1
 349 530 l 1
 337 469 l 1
 295 469 l 1
 389 308 l 1
 549 469 l 1
 499 469 l 1
 510 530 l 1
 687 530 l 1
 675 469 l 1
 618 469 l 1
 415 265 l 1
 535 60 l 1
 593 60 l 1
 581 0 l 1
 363 0 l 1
 376 60 l 1
 424 60 l 1
 332 217 l 1
 177 60 l 1
 226 60 l 1
 214 0 l 1
 29 0 l 1
EndSplineSet
EndChar
StartChar: y
Encoding: 121 121 190
Width: 600
Flags: MW
HStem: -193 61<108 204 269 330 96 204> 0 20 469 61<133 157 121 351 261 261 261 339 500 566 631 631 631 667>
LayerCount: 2
Fore
SplineSet
251 0 m 1
 157 469 l 1
 121 469 l 1
 133 530 l 1
 351 530 l 1
 339 469 l 1
 261 469 l 1
 337 90 l 1
 338 90 l 1
 566 469 l 1
 488 469 l 1
 500 530 l 1
 679 530 l 1
 667 469 l 1
 631 469 l 1
 349 0 l 1
 269 -132 l 1
 342 -132 l 1
 330 -193 l 1
 96 -193 l 1
 108 -132 l 1
 204 -132 l 1
 284 0 l 1xe0
 251 0 l 1
EndSplineSet
EndChar
StartChar: braceleft
Encoding: 123 123 269
Width: 600
Flags: W
VStem: 234 90<-35.5 -4.5> 296 84<204.5 226.5 189.5 237>
LayerCount: 2
Fore
SplineSet
460 -145 m 1x80
 396 -145 l 2
 303 -145 234 -91 234 -18 c 0x80
 234 9 242 43 258 86 c 2
 280 145 l 2
 292 177 296 195 296 214 c 0
 296 260 264 283 201 283 c 2
 146 283 l 1
 158 343 l 1
 213 343 l 2
 303 343 345 386 347 481 c 2
 349 541 l 2
 351 615 369 665 412 708 c 0
 454 750 510 771 580 771 c 2
 644 771 l 1
 631 711 l 1
 603 711 l 2
 495 711 443 665 442 568 c 2
 441 507 l 2
 440 417 396 354 303 313 c 1
 357 284 380 250 380 203 c 0x40
 380 176 375 150 363 120 c 2
 340 59 l 2
 329 28 324 7 324 -11 c 0
 324 -60 364 -84 443 -84 c 2
 472 -84 l 1
 460 -145 l 1x80
EndSplineSet
EndChar
StartChar: bar
Encoding: 124 124 304
Width: 600
Flags: W
LayerCount: 2
Fore
SplineSet
235 -145 m 1
 418 771 l 1
 490 771 l 1
 307 -145 l 1
 235 -145 l 1
EndSplineSet
EndChar
StartChar: braceright
Encoding: 125 125 270
Width: 600
Flags: W
VStem: 346 84<400.5 421.5 389.5 437.5> 401 90<631 662>
LayerCount: 2
Fore
SplineSet
265 771 m 1x40
 329 771 l 2
 422 771 491 717 491 644 c 0x40
 491 618 482 579 468 541 c 2
 445 481 l 2
 436 456 430 431 430 412 c 0
 430 367 462 343 525 343 c 2
 580 343 l 1
 567 283 l 1
 513 283 l 2
 423 283 382 241 378 145 c 2
 376 86 l 2
 374 10 356 -38 313 -81 c 0
 271 -123 215 -145 146 -145 c 2
 82 -145 l 1
 94 -84 l 1
 123 -84 l 2
 230 -84 281 -39 283 59 c 2
 285 120 l 2
 286 211 330 272 422 313 c 1
 368 344 346 376 346 425 c 0x80
 346 450 352 482 362 507 c 2
 385 568 l 2
 395 594 401 619 401 638 c 0
 401 686 361 711 282 711 c 2
 253 711 l 1
 265 771 l 1x40
EndSplineSet
EndChar
StartChar: asciitilde
Encoding: 126 126 307
Width: 600
Flags: MW
HStem: 201 72<458 469> 305 72<248 259>
LayerCount: 2
Fore
SplineSet
175 217 m 1
 103 217 l 1
 120 287 139 322 175 349 c 0
 199 367 231 377 265 377 c 0
 297 377 325 366 355 343 c 2
 402 306 l 1
 430 283 l 2
 437 277 452 273 464 273 c 0
 502 273 526 299 541 361 c 1
 614 361 l 1
 597 291 578 256 542 229 c 0
 517 211 486 201 452 201 c 0
 419 201 392 211 362 235 c 2
 314 272 l 1
 287 295 l 2
 280 301 265 305 253 305 c 0
 214 305 191 278 175 217 c 1
EndSplineSet
EndChar
StartChar: exclamdown
Encoding: 161 161 233
Width: 600
Flags: MW
HStem: 0 20 422 108<345 444 324 466>
LayerCount: 2
Fore
SplineSet
466 530 m 1
 444 422 l 1
 324 422 l 1
 345 530 l 1
 466 530 l 1
395 325 m 1
 348 0 l 1
 309 -193 l 1
 213 -193 l 1
 252 0 l 1
 335 325 l 1
 395 325 l 1
EndSplineSet
EndChar
StartChar: cent
Encoding: 162 162 215
Width: 600
Flags: MW
HStem: 0 20 703 20<452 512 512 512>
VStem: 149 102<259 341>
LayerCount: 2
Fore
SplineSet
307 0 m 1
 325 87 l 1
 254 97 220 114 189 151 c 0
 162 185 149 229 149 289 c 0
 149 393 186 485 254 552 c 0
 304 601 357 626 435 637 c 1
 452 723 l 1
 512 723 l 1
 495 639 l 1
 544 635 593 626 635 615 c 1
 604 458 l 1
 544 458 l 1
 552 560 l 1
 531 572 509 578 483 578 c 1
 398 149 l 1
 436 149 488 160 555 184 c 1
 541 114 l 1
 490 98 438 88 384 85 c 1
 368 0 l 1
 307 0 l 1
338 155 m 1
 422 576 l 1
 319 545 251 433 251 295 c 0
 251 213 277 171 338 155 c 1
EndSplineSet
EndChar
StartChar: sterling
Encoding: 163 163 213
Width: 600
Flags: MW
HStem: 0 84<197 510> 356 60<171 243 159 256 352 469> 681 60<467 508>
LayerCount: 2
Fore
SplineSet
73 0 m 1
 91 87 l 1
 162 110 205 164 222 250 c 2
 243 356 l 1
 159 356 l 1
 171 416 l 1
 256 416 l 1
 281 542 l 2
 306 666 393 741 513 741 c 0
 555 741 598 733 646 717 c 1
 615 567 l 1
 555 567 l 1
 564 669 l 1
 538 677 518 681 498 681 c 0
 436 681 398 648 385 582 c 2
 352 416 l 1
 482 416 l 1
 469 356 l 1
 340 356 l 1
 323 273 l 2
 307 190 265 128 197 84 c 1
 527 84 l 1
 510 0 l 1
 73 0 l 1
EndSplineSet
EndChar
StartChar: currency
Encoding: 164 164 266
Width: 600
Flags: MW
HStem: 110 72<301 345.5> 472 72<385.5 429.5>
VStem: 144 74<268 316> 513 74<338 386 338 390>
LayerCount: 2
Fore
SplineSet
200 154 m 1
 98 69 l 1
 64 111 l 1
 166 197 l 1
 150 227 144 252 144 284 c 0
 144 348 167 401 218 458 c 1
 150 543 l 1
 201 586 l 1
 270 500 l 1
 320 531 362 544 409 544 c 0
 455 544 492 531 530 500 c 1
 633 586 l 1
 667 543 l 1
 564 458 l 1
 581 428 587 402 587 370 c 0
 587 306 564 253 512 197 c 1
 581 112 l 1
 529 69 l 1
 461 154 l 1
 410 123 369 110 322 110 c 0
 275 110 239 123 200 154 c 1
394 472 m 0
 301 472 218 391 218 299 c 0
 218 228 265 182 337 182 c 0
 430 182 513 263 513 355 c 0
 513 425 465 472 394 472 c 0
EndSplineSet
EndChar
StartChar: yen
Encoding: 165 165 218
Width: 600
Flags: MW
HStem: 0 60<144 264 156 264 360 456> 199 61<135 291 123 304 400 557> 361 61<167 279 167 302 156 279 490 589> 663 60<168 188 157 384 299 299 299 372 547 607 677 677 677 708>
LayerCount: 2
Fore
SplineSet
144 0 m 1
 156 60 l 1
 264 60 l 1
 291 199 l 1
 123 199 l 1
 135 260 l 1
 304 260 l 1
 316 322 l 1
 302 361 l 1
 156 361 l 1
 167 422 l 1
 279 422 l 1
 188 663 l 1
 157 663 l 1
 168 723 l 1
 384 723 l 1
 372 663 l 1
 299 663 l 1
 400 397 l 1
 401 397 l 1
 607 663 l 1
 535 663 l 1
 547 723 l 1
 720 723 l 1
 708 663 l 1
 677 663 l 1
 490 422 l 1
 601 422 l 1
 589 361 l 1
 443 361 l 1
 413 323 l 1
 400 260 l 1
 569 260 l 1
 557 199 l 1
 388 199 l 1
 360 60 l 1
 469 60 l 1
 456 0 l 1
 144 0 l 1
EndSplineSet
EndChar
StartChar: brokenbar
Encoding: 166 166 305
Width: 600
Flags: W
LayerCount: 2
Fore
SplineSet
235 -145 m 1
 307 217 l 1
 380 217 l 1
 307 -145 l 1
 235 -145 l 1
346 410 m 1
 418 771 l 1
 490 771 l 1
 418 410 l 1
 346 410 l 1
EndSplineSet
EndChar
StartChar: section
Encoding: 167 167 250
Width: 600
Flags: W
HStem: -162 60<255.5 327.5 255.5 335.5> 681 61<428 463>
VStem: 136 88<295 306> 191 90<552.5 560> 442 87<-20.5 29.5> 494 77<281 293.5>
LayerCount: 2
Fore
SplineSet
50 -126 m 1xc8
 81 31 l 1
 142 31 l 1
 133 -72 l 1
 183 -92 230 -102 281 -102 c 0
 374 -102 442 -54 442 13 c 0
 442 46 413 73 346 101 c 2
 236 148 l 2
 169 176 136 218 136 275 c 0xe8
 136 337 167 389 238 446 c 1
 205 474 191 500 191 537 c 0
 191 583 214 631 254 670 c 0
 304 718 378 742 478 742 c 0
 531 742 579 736 641 720 c 1
 610 564 l 1
 550 564 l 1
 557 663 l 1
 516 675 481 681 445 681 c 0
 349 681 281 635 281 570 c 0
 281 535 310 506 372 481 c 2
 466 442 l 2
 537 413 571 370 571 311 c 0xd4
 571 251 542 198 476 138 c 1
 514 106 529 77 529 35 c 0
 529 -81 416 -162 255 -162 c 0
 179 -162 114 -151 50 -126 c 1xc8
407 179 m 1
 430 168 l 1
 474 208 494 241 494 276 c 0xc4
 494 311 470 338 421 358 c 2
 304 404 l 1
 283 413 l 1
 242 376 224 346 224 312 c 0
 224 278 245 250 286 232 c 2
 407 179 l 1
EndSplineSet
EndChar
StartChar: dieresis
Encoding: 168 168 281
Width: 600
Flags: MW
HStem: 627 96<263 378 282 359 511 588>
LayerCount: 2
Fore
SplineSet
263 627 m 1
 282 723 l 1
 378 723 l 1
 359 627 l 1x80
 263 627 l 1
492 627 m 1
 511 723 l 1
 607 723 l 1
 588 627 l 1
 492 627 l 1
EndSplineSet
EndChar
StartChar: copyright
Encoding: 169 169 295
Width: 600
Flags: MW
HStem: -18 54<254.5 339.5 254.5 342.5> 141 54<335.5 359> 527 48<383 435> 687 55<400 489.5>
VStem: 90 62<182 307> 205 62<273 370.5 273 376> 593 62<415 541>
LayerCount: 2
Fore
SplineSet
446 742 m 0
 579 742 655 647 655 481 c 0
 655 349 618 228 548 131 c 0
 477 32 392 -18 293 -18 c 0
 166 -18 90 80 90 242 c 0
 90 372 127 493 196 591 c 0
 267 692 350 742 446 742 c 0
438 687 m 0
 362 687 295 643 238 557 c 0
 181 471 152 368 152 255 c 0
 152 109 203 36 306 36 c 0
 373 36 435 71 488 140 c 0
 557 229 593 342 593 468 c 0
 593 614 541 687 438 687 c 0
460 168 m 1
 449 164 l 2
 408 149 373 141 345 141 c 0
 258 141 205 202 205 301 c 0
 205 451 308 575 432 575 c 0
 457 575 502 569 528 562 c 2
 536 560 l 1
 518 469 l 1
 477 469 l 1
 486 515 l 1
 463 523 444 527 426 527 c 0
 340 527 267 429 267 312 c 0
 267 234 301 195 370 195 c 0
 403 195 435 203 470 220 c 1
 460 168 l 1
EndSplineSet
EndChar
StartChar: ordfeminine
Encoding: 170 170 271
Width: 600
Flags: W
HStem: 349 60<300.5 320> 358 60<544 619> 681 60<417.5 442>
VStem: 158 92<436.5 475 436.5 486>
LayerCount: 2
Fore
SplineSet
460 358 m 1x70
 456 399 l 1
 393 363 347 349 293 349 c 0x90
 204 349 158 379 158 438 c 0
 158 534 259 584 455 584 c 2
 493 584 l 1
 498 611 l 2
 500 617 501 630 501 634 c 0
 501 664 470 681 414 681 c 0
 383 681 353 675 307 661 c 1
 299 620 l 1
 226 620 l 1
 245 712 l 1
 336 733 392 741 443 741 c 0
 540 741 591 714 591 664 c 0
 591 655 590 648 586 629 c 2
 544 418 l 1
 632 418 l 1
 619 358 l 1
 460 358 l 1x70
467 456 m 1x90
 481 527 l 1
 462 527 l 2
 323 527 250 500 250 450 c 0
 250 423 276 409 325 409 c 0
 372 409 413 423 467 456 c 1x90
EndSplineSet
EndChar
StartChar: guillemotleft
Encoding: 171 171 237
Width: 600
Flags: W
LayerCount: 2
Fore
SplineSet
558 90 m 1
 507 48 l 1
 334 265 l 1
 594 482 l 1
 628 440 l 1
 454 265 l 1
 558 90 l 1
317 90 m 1
 266 48 l 1
 93 265 l 1
 353 482 l 1
 387 440 l 1
 213 265 l 1
 317 90 l 1
EndSplineSet
EndChar
StartChar: logicalnot
Encoding: 172 172 302
Width: 600
Flags: MW
HStem: 265 72<115 532 101 619 604 604>
LayerCount: 2
Fore
SplineSet
498 96 m 1
 532 265 l 1
 101 265 l 1
 115 337 l 1
 619 337 l 1
 604 265 l 1
 571 96 l 1
 498 96 l 1
EndSplineSet
EndChar
StartChar: sfthyphen
Encoding: 173 173 242
Width: 600
Flags: MW
HStem: 265 72<125 595 139 580>
LayerCount: 2
Fore
SplineSet
125 265 m 1
 139 337 l 1
 595 337 l 1
 580 265 l 1
 125 265 l 1
EndSplineSet
EndChar
StartChar: registered
Encoding: 174 174 296
Width: 600
Flags: MW
HStem: -18 54<254.5 339.5 254.5 342.5> 687 55<400 489.5>
VStem: 90 62<182 307> 451 61<458 504> 593 62<415 541>
LayerCount: 2
Fore
SplineSet
446 742 m 0
 579 742 655 647 655 481 c 0
 655 349 618 228 548 131 c 0
 477 32 392 -18 293 -18 c 0
 166 -18 90 80 90 242 c 0
 90 372 127 493 196 591 c 0
 267 692 350 742 446 742 c 0
438 687 m 0
 362 687 295 643 238 557 c 0
 181 471 152 368 152 255 c 0
 152 109 203 36 306 36 c 0
 373 36 435 71 488 140 c 0
 557 229 593 342 593 468 c 0
 593 614 541 687 438 687 c 0
209 155 m 1
 216 190 l 1
 246 190 l 1
 315 534 l 1
 285 534 l 1
 292 568 l 1
 424 568 l 2
 483 568 512 542 512 488 c 0
 512 428 482 387 414 353 c 1
 472 190 l 1
 485 190 l 1
 478 155 l 1
 420 155 l 1
 361 336 l 1
 329 336 l 1
 300 190 l 1
 337 190 l 1
 329 155 l 1
 209 155 l 1
337 370 m 1
 340 370 l 2
 406 370 451 417 451 485 c 0
 451 523 437 534 387 534 c 2
 369 534 l 1
 337 370 l 1
EndSplineSet
EndChar
StartChar: macron
Encoding: 349 175 293
Width: 600
Flags: MW
HStem: 626 61<257 606 269 594>
LayerCount: 2
Fore
SplineSet
257 626 m 1
 269 687 l 1
 606 687 l 1
 594 626 l 1x80
 257 626 l 1
EndSplineSet
EndChar
StartChar: degree
Encoding: 176 176 258
Width: 600
Flags: MW
HStem: 451 61<381.5 431.5 381.5 438.5> 681 61<413 462.5>
VStem: 275 61<557 606 557 614> 508 62<587 636>
LayerCount: 2
Fore
SplineSet
452 742 m 0
 521 742 570 693 570 624 c 0
 570 534 485 451 392 451 c 0
 324 451 275 500 275 568 c 0
 275 660 359 742 452 742 c 0
441 681 m 0
 385 681 336 633 336 579 c 0
 336 535 359 512 404 512 c 0
 459 512 508 560 508 614 c 0
 508 658 484 681 441 681 c 0
EndSplineSet
EndChar
StartChar: plusminus
Encoding: 177 177 273
Width: 600
Flags: MW
HStem: 0 72<63 551 48 566> 338 72<130 331 115 345 130 403 418 619>
LayerCount: 2
Fore
SplineSet
293 145 m 1
 331 338 l 1
 115 338 l 1
 130 410 l 1
 345 410 l 1
 384 603 l 1
 456 603 l 1
 418 410 l 1
 633 410 l 1
 619 338 l 1
 403 338 l 1
 365 145 l 1
 293 145 l 1
551 0 m 1
 48 0 l 1
 63 72 l 1
 566 72 l 1
 551 0 l 1
EndSplineSet
EndChar
StartChar: twosuperior
Encoding: 178 178 220
Width: 600
Flags: MW
HStem: 356 72<196 211 211 211 310 546> 681 61<414.5 452>
VStem: 507 90<623 650.5>
LayerCount: 2
Fore
SplineSet
196 356 m 1
 211 428 l 1
 248 485 273 502 377 540 c 2
 427 558 l 2
 480 578 507 604 507 635 c 0
 507 666 480 681 424 681 c 0
 385 681 354 675 324 663 c 1
 309 618 l 1
 249 618 l 1
 268 717 l 1
 288 722 l 2
 356 737 393 742 436 742 c 0
 544 742 597 713 597 653 c 0
 597 593 553 546 471 519 c 2
 427 504 l 2
 364 483 325 458 310 428 c 1
 560 428 l 1
 546 356 l 1
 196 356 l 1
EndSplineSet
EndChar
StartChar: threesuperior
Encoding: 179 179 221
Width: 600
Flags: W
HStem: 349 60<341.5 397.5 341.5 418> 681 61<414.5 456>
VStem: 478 87<449 489.5> 512 91<638 654.5>
LayerCount: 2
Fore
SplineSet
202 368 m 1xe0
 219 452 l 1
 279 452 l 1
 279 419 l 1
 301 412 326 409 357 409 c 0
 438 409 478 429 478 469 c 0xe0
 478 510 447 521 331 521 c 2
 287 521 l 1
 299 582 l 1
 346 582 l 2
 471 582 512 596 512 641 c 0
 512 668 485 681 427 681 c 0
 387 681 357 676 328 666 c 1
 314 627 l 1
 254 627 l 1
 272 717 l 1
 334 735 385 742 444 742 c 0
 550 742 603 716 603 664 c 0xd0
 603 612 565 577 479 550 c 1
 540 536 565 514 565 472 c 0
 565 395 485 349 351 349 c 0
 302 349 258 354 202 368 c 1xe0
EndSplineSet
EndChar
StartChar: acute
Encoding: 180 180 284
Width: 600
Flags: W
LayerCount: 2
Fore
SplineSet
317 626 m 1
 454 783 l 1
 565 783 l 1
 377 626 l 1
 317 626 l 1
EndSplineSet
EndChar
StartChar: mu
Encoding: 181 181 308
Width: 600
Flags: W
HStem: -12 76<262 273> 0 20 510 20<139 296 296 296 465 616 616 616>
LayerCount: 2
Fore
SplineSet
188 469 m 1x80
 127 469 l 1
 139 530 l 1
 296 530 l 1
 228 188 l 2
 222 159 220 142 220 127 c 0
 220 86 242 64 282 64 c 0xa0
 334 64 384 101 450 186 c 1
 507 469 l 1
 453 469 l 1
 465 530 l 1
 616 530 l 1
 521 60 l 1
 582 60 l 1
 570 0 l 1
 413 0 l 1x60
 433 102 l 1
 365 23 306 -12 240 -12 c 0
 225 -12 208 -10 189 -5 c 1
 152 -193 l 1
 55 -193 l 1
 129 177 l 1
 188 469 l 1x80
EndSplineSet
EndChar
StartChar: paragraph
Encoding: 182 182 265
Width: 600
Flags: W
HStem: 663 60<479 549 464 621> 709 20<307.5 378>
LayerCount: 2
Fore
SplineSet
243 -144 m 1x80
 344 362 l 1
 215 377 160 425 160 523 c 0
 160 648 243 729 372 729 c 0x40
 384 729 405 728 418 727 c 2
 452 724 l 2
 459 723 468 723 479 723 c 2
 621 723 l 1
 447 -144 l 1
 387 -144 l 1
 549 663 l 1
 464 663 l 1
 303 -144 l 1
 243 -144 l 1x80
EndSplineSet
EndChar
StartChar: periodcentered
Encoding: 340 183 224
Width: 600
Flags: MW
HStem: 205 121<281 426 305 402>
LayerCount: 2
Fore
SplineSet
281 205 m 1
 305 326 l 1
 426 326 l 1
 402 205 l 1
 281 205 l 1
EndSplineSet
EndChar
StartChar: cedilla
Encoding: 184 184 291
Width: 600
Flags: MW
HStem: -211 42<232 251.5 224 274> 0 20
VStem: 291 69<-140.5 -113>
LayerCount: 2
Fore
SplineSet
272 0 m 1
 319 0 l 1
 279 -53 l 1
 335 -57 360 -78 360 -119 c 0
 360 -168 305 -211 243 -211 c 0
 221 -211 199 -208 175 -201 c 1
 183 -161 l 1
 198 -166 215 -169 233 -169 c 0
 270 -169 291 -154 291 -127 c 0
 291 -99 267 -87 208 -85 c 1xe0
 272 0 l 1
EndSplineSet
EndChar
StartChar: onesuperior
Encoding: 185 185 219
Width: 600
Flags: MW
HStem: 356 60<201 341 213 341 425 541> 721 20<491 491>
LayerCount: 2
Fore
SplineSet
201 356 m 1
 213 416 l 1
 341 416 l 1
 389 657 l 1
 256 633 l 1
 268 693 l 1
 491 741 l 1
 425 416 l 1
 553 416 l 1
 541 356 l 1
 201 356 l 1
EndSplineSet
EndChar
StartChar: ordmasculine
Encoding: 186 186 272
Width: 600
Flags: MW
HStem: 349 60<350 430.5 350 449.5> 681 60<393.5 474>
VStem: 181 91<483 560.5 483 574.5> 553 91<529 607>
LayerCount: 2
Fore
SplineSet
453 741 m 0
 580 741 644 688 644 584 c 0
 644 447 530 349 369 349 c 0
 249 349 181 406 181 507 c 0
 181 642 295 741 453 741 c 0
440 681 m 0
 347 681 272 606 272 515 c 0
 272 451 316 409 384 409 c 0
 477 409 553 483 553 575 c 0
 553 639 508 681 440 681 c 0
EndSplineSet
EndChar
StartChar: guillemotright
Encoding: 187 187 236
Width: 600
Flags: W
LayerCount: 2
Fore
SplineSet
78 90 m 1
 251 265 l 1
 148 440 l 1
 199 482 l 1
 372 265 l 1
 112 48 l 1
 78 90 l 1
319 90 m 1
 493 265 l 1
 389 440 l 1
 439 482 l 1
 613 265 l 1
 352 48 l 1
 319 90 l 1
EndSplineSet
EndChar
StartChar: onequarter
Encoding: 188 188 275
Width: 600
Flags: W
HStem: -18 20 0 20 87 60<290 290 358 461 278 290 546 588> 721 20<320 320 570 640 640 640>
LayerCount: 2
Fore
SplineSet
171 355 m 1x90
 231 657 l 1
 148 631 l 1
 160 691 l 1
 320 741 l 1
 244 355 l 1
 171 355 l 1x90
39 -18 m 1
 570 741 l 1
 640 741 l 1
 106 -18 l 1
 39 -18 l 1
517 0 m 1x60
 444 0 l 1
 461 87 l 1
 278 87 l 1
 290 147 l 1
 519 386 l 1
 593 386 l 1
 546 147 l 1
 600 147 l 1
 588 87 l 1
 534 87 l 1
 517 0 l 1x60
358 147 m 1
 474 147 l 1
 504 298 l 1
 358 147 l 1
EndSplineSet
EndChar
StartChar: onehalf
Encoding: 189 189 274
Width: 600
Flags: W
HStem: -18 20 0 72<418 571> 332 54<491.5 513> 721 20<320 320 564 633 633 633>
VStem: 548 80<277.5 302.5>
LayerCount: 2
Fore
SplineSet
33 -18 m 1x98
 564 741 l 1
 633 741 l 1
 100 -18 l 1
 33 -18 l 1x98
324 0 m 1x78
 339 75 l 1
 360 106 391 132 442 165 c 0
 449 169 455 173 460 176 c 2
 479 192 l 1
 511 215 l 2
 534 231 548 259 548 288 c 0
 548 317 530 332 496 332 c 0
 480 332 466 328 441 317 c 1
 434 284 l 1
 380 284 l 1
 396 361 l 1
 436 378 471 386 512 386 c 0
 589 386 628 358 628 302 c 0
 628 253 596 206 537 168 c 2
 518 155 l 1
 517 155 l 1
 516 154 l 2
 508 149 497 143 484 134 c 0
 451 115 430 95 418 72 c 1
 585 72 l 1
 571 0 l 1
 324 0 l 1x78
171 355 m 1
 231 657 l 1
 148 631 l 1
 159 691 l 1
 320 741 l 1
 243 355 l 1
 171 355 l 1
EndSplineSet
EndChar
StartChar: threequarters
Encoding: 190 190 276
Width: 600
Flags: W
HStem: -18 20 0 20 87 60<308 308 375 479 296 308 563 605> 349 55<195.5 229.5 195.5 236.5> 687 55<268 280.5>
VStem: 280 73<453 493> 313 78<644 660>
LayerCount: 2
Fore
SplineSet
81 -18 m 1x9c
 612 741 l 1
 681 741 l 1
 148 -18 l 1
 81 -18 l 1x9c
92 368 m 1
 107 448 l 1
 162 448 l 1
 156 417 l 1
 170 408 185 404 206 404 c 0
 253 404 280 430 280 476 c 0x9c
 280 510 256 526 201 526 c 2
 184 526 l 1
 194 580 l 1
 214 580 l 2
 280 580 313 602 313 646 c 0
 313 674 297 687 264 687 c 0
 243 687 226 683 206 672 c 1
 201 641 l 1
 146 641 l 1
 162 718 l 1
 215 735 250 742 286 742 c 0
 356 742 391 718 391 670 c 0x9a
 391 618 357 581 284 552 c 1
 333 539 353 518 353 480 c 0
 353 404 284 349 189 349 c 0
 165 349 133 355 102 364 c 2
 92 368 l 1
534 0 m 1x64
 461 0 l 1
 479 87 l 1
 296 87 l 1
 308 147 l 1
 537 386 l 1
 611 386 l 1
 563 147 l 1
 618 147 l 1
 605 87 l 1
 551 87 l 1
 534 0 l 1x64
375 147 m 1
 491 147 l 1
 521 298 l 1
 375 147 l 1
EndSplineSet
EndChar
StartChar: questiondown
Encoding: 191 191 235
Width: 600
Flags: MW
HStem: -211 60<240 293.5> 421 109<385 483 363 505>
VStem: 63 105<-93 -44>
LayerCount: 2
Fore
SplineSet
505 530 m 1
 483 421 l 1
 363 421 l 1
 385 530 l 1
 505 530 l 1
452 325 m 1
 446 296 l 2
 430 217 383 154 300 102 c 2
 263 79 l 2
 199 39 168 -8 168 -64 c 0
 168 -122 204 -151 276 -151 c 0
 319 -151 359 -142 407 -121 c 1
 444 6 l 1
 504 6 l 1
 468 -178 l 1
 387 -201 326 -211 261 -211 c 0
 129 -211 63 -166 63 -77 c 0
 63 -11 96 43 164 88 c 2
 196 109 l 2
 197 110 199 111 203 113 c 0
 319 183 328 195 350 295 c 2
 356 325 l 1
 452 325 l 1
EndSplineSet
EndChar
StartChar: Agrave
Encoding: 192 192 2
Width: 600
Flags: MW
HStem: 0 60<24 60 123 181 12 60 386 462 563 587> 217 61<203 439 234 439 234 445> 703 20<398 491 491 491>
LayerCount: 2
Fore
SplineSet
203 217 m 1
 123 60 l 1
 193 60 l 1
 181 0 l 1
 12 0 l 1
 24 60 l 1
 60 60 l 1
 398 723 l 1
 491 723 l 1
 563 60 l 1
 599 60 l 1
 587 0 l 1
 374 0 l 1
 386 60 l 1
 462 60 l 1
 445 217 l 1
 203 217 l 1
234 278 m 1
 439 278 l 1
 403 607 l 1
 402 607 l 1
 234 278 l 1
517 783 m 1
 456 783 l 1
 331 940 l 1
 443 940 l 1
 517 783 l 1
EndSplineSet
EndChar
StartChar: Atilde
Encoding: 195 195 5
Width: 600
Flags: W
HStem: 0 60<24 60 123 181 12 60 386 462 563 587> 217 61<203 439 234 439 234 445> 703 20<398 491 491 491> 783 59<532.5 549.5 532.5 557> 839 59<386.5 403.5>
LayerCount: 2
Fore
SplineSet
203 217 m 1xe8
 123 60 l 1
 193 60 l 1
 181 0 l 1
 12 0 l 1
 24 60 l 1
 60 60 l 1
 398 723 l 1
 491 723 l 1
 563 60 l 1
 599 60 l 1
 587 0 l 1
 374 0 l 1
 386 60 l 1
 462 60 l 1
 445 217 l 1
 203 217 l 1xe8
234 278 m 1
 439 278 l 1
 403 607 l 1
 402 607 l 1
 234 278 l 1
348 783 m 1
 294 783 l 1
 315 863 350 898 408 898 c 0x08
 430 898 452 891 470 879 c 2
 495 861 l 2
 513 848 527 842 538 842 c 0
 561 842 576 859 588 897 c 1
 642 897 l 1
 619 817 586 783 528 783 c 0x10
 505 783 484 789 467 802 c 2
 441 820 l 2
 420 834 409 839 398 839 c 0
 375 839 359 822 348 783 c 1
EndSplineSet
EndChar
StartChar: Adieresis
Encoding: 196 196 0
Width: 600
Flags: MW
HStem: 0 60<24 60 123 181 12 60 386 462 563 587> 217 61<203 439 234 439 234 445> 703 20<398 491 491 491> 783 96<294 409 313 390 542 619>
LayerCount: 2
Fore
SplineSet
203 217 m 1
 123 60 l 1
 193 60 l 1
 181 0 l 1
 12 0 l 1
 24 60 l 1
 60 60 l 1
 398 723 l 1
 491 723 l 1
 563 60 l 1
 599 60 l 1
 587 0 l 1
 374 0 l 1
 386 60 l 1
 462 60 l 1
 445 217 l 1
 203 217 l 1
234 278 m 1
 439 278 l 1
 403 607 l 1
 402 607 l 1
 234 278 l 1
294 783 m 1
 313 879 l 1
 409 879 l 1
 390 783 l 1
 294 783 l 1
523 783 m 1
 542 879 l 1
 638 879 l 1
 619 783 l 1
 523 783 l 1
EndSplineSet
EndChar
StartChar: Aring
Encoding: 197 197 6
Width: 600
Flags: MW
HStem: 0 60<24 60 123 181 12 60 386 462 563 587> 217 61<203 439 234 439 234 445> 703 20<398 491 417.5 479.5 491 491> 723 42<433.5 474 433.5 491 433.5 474 433.5 479.5 433.5 491> 903 42<458.5 499>
VStem: 354 43<802 842 802 847> 536 43<826.5 866.5>
LayerCount: 2
Fore
SplineSet
203 217 m 1xfe
 123 60 l 1
 193 60 l 1
 181 0 l 1
 12 0 l 1
 24 60 l 1
 60 60 l 1
 398 723 l 1
 491 723 l 1
 563 60 l 1
 599 60 l 1
 587 0 l 1
 374 0 l 1
 386 60 l 1
 462 60 l 1
 445 217 l 1
 203 217 l 1xfe
234 278 m 1
 439 278 l 1
 403 607 l 1
 402 607 l 1
 234 278 l 1
489 945 m 0
 541 945 579 908 579 856 c 0
 579 786 515 723 444 723 c 0
 391 723 354 760 354 812 c 0
 354 882 418 945 489 945 c 0
481 903 m 0
 436 903 397 864 397 820 c 0
 397 784 416 765 451 765 c 0
 497 765 536 804 536 849 c 0
 536 884 517 903 481 903 c 0
EndSplineSet
EndChar
StartChar: AE
Encoding: 198 198 159
Width: 600
Flags: MW
HStem: 0 60<18 39 102 149 6 39 270 324 415 546> 205 61<231 353 193 365> 343 61<471 569 484 557> 663 60<535 657 535 535>
LayerCount: 2
Fore
SplineSet
471 343 m 1
 415 60 l 1
 546 60 l 1
 567 163 l 1
 627 163 l 1
 594 0 l 1
 258 0 l 1
 270 60 l 1
 324 60 l 1
 353 205 l 1
 193 205 l 1
 102 60 l 1
 161 60 l 1
 149 0 l 1
 6 0 l 1
 18 60 l 1
 39 60 l 1
 457 723 l 1
 730 723 l 1
 699 570 l 1
 639 570 l 1
 657 663 l 1
 535 663 l 1
 484 404 l 1
 569 404 l 1
 582 464 l 1
 642 464 l 1
 606 284 l 1
 546 284 l 1
 557 343 l 1
 471 343 l 1
231 266 m 1
 365 266 l 1
 427 577 l 1
 231 266 l 1
EndSplineSet
EndChar
StartChar: Ccedilla
Encoding: 199 199 8
Width: 600
Flags: W
HStem: -211 43<288.5 307.5 279 330> -18 66<330.5 389> 0 20 681 60<456 512.5>
VStem: 121 101<182 298.5 182 312> 347 69<-139.5 -112>
LayerCount: 2
Fore
SplineSet
574 114 m 1x5c
 558 36 l 1
 477 -3 421 -18 357 -18 c 0
 199 -18 121 69 121 245 c 0
 121 379 160 505 231 601 c 0
 301 695 390 741 504 741 c 0
 559 741 615 731 683 710 c 1
 649 542 l 1
 589 542 l 1
 598 655 l 1
 564 673 531 681 494 681 c 0
 418 681 356 640 306 555 c 0
 252 464 222 353 222 244 c 0
 222 120 280 48 381 48 c 0
 443 48 502 68 574 114 c 1x5c
328 0 m 1xac
 375 0 l 1
 335 -53 l 1
 391 -57 416 -78 416 -119 c 0
 416 -168 361 -211 299 -211 c 0
 278 -211 254 -207 231 -201 c 1
 239 -161 l 1
 254 -166 270 -168 288 -168 c 0
 327 -168 347 -153 347 -126 c 0
 347 -98 323 -87 264 -85 c 1
 328 0 l 1xac
EndSplineSet
EndChar
StartChar: Eacute
Encoding: 201 201 13
Width: 600
Flags: W
HStem: 0 60<36 139 48 139 48 540> 0 66<236 493 236 540> 337 60<302 432 290 445> 663 60<181 259 168 660 355 355 355 588>
LayerCount: 2
Fore
SplineSet
36 0 m 1x80
 48 60 l 1
 139 60 l 1x80
 259 663 l 1
 168 663 l 1
 181 723 l 1
 660 723 l 1
 625 548 l 1
 565 548 l 1
 588 663 l 1
 355 663 l 1
 302 397 l 1
 445 397 l 1
 456 458 l 1
 517 458 l 1
 481 276 l 1
 420 276 l 1
 432 337 l 1
 290 337 l 1
 236 66 l 1
 493 66 l 1x70
 517 187 l 1
 577 187 l 1
 540 0 l 1
 36 0 l 1x80
391 783 m 1
 528 940 l 1
 640 940 l 1
 452 783 l 1
 391 783 l 1
EndSplineSet
EndChar
StartChar: Ecircumflex
Encoding: 202 202 15
Width: 600
Flags: W
HStem: 0 60<36 139 48 139 48 540> 0 66<236 493 236 540> 337 60<302 432 290 445> 663 60<181 259 168 660 355 355 355 588>
LayerCount: 2
Fore
SplineSet
36 0 m 1x80
 48 60 l 1
 139 60 l 1x80
 259 663 l 1
 168 663 l 1
 181 723 l 1
 660 723 l 1
 625 548 l 1
 565 548 l 1
 588 663 l 1
 355 663 l 1
 302 397 l 1
 445 397 l 1
 456 458 l 1
 517 458 l 1
 481 276 l 1
 420 276 l 1
 432 337 l 1
 290 337 l 1
 236 66 l 1
 493 66 l 1x70
 517 187 l 1
 577 187 l 1
 540 0 l 1
 36 0 l 1x80
283 783 m 1
 440 940 l 1
 546 940 l 1
 640 783 l 1
 580 783 l 1
 482 881 l 1
 481 881 l 1
 343 783 l 1
 283 783 l 1
EndSplineSet
EndChar
StartChar: Igrave
Encoding: 204 204 22
Width: 600
Flags: MW
HStem: 0 60<78 264 90 264 360 521> 663 60<223 384 210 666 480 480 480 654>
LayerCount: 2
Fore
SplineSet
78 0 m 1
 90 60 l 1
 264 60 l 1
 384 663 l 1
 210 663 l 1
 223 723 l 1
 666 723 l 1
 654 663 l 1
 480 663 l 1
 360 60 l 1
 534 60 l 1
 521 0 l 1
 78 0 l 1
504 783 m 1
 444 783 l 1
 319 940 l 1
 431 940 l 1
 504 783 l 1
EndSplineSet
EndChar
StartChar: Iacute
Encoding: 205 205 21
Width: 600
Flags: MW
HStem: 0 60<78 264 90 264 360 521> 663 60<223 384 210 666 480 480 480 654>
LayerCount: 2
Fore
SplineSet
78 0 m 1
 90 60 l 1
 264 60 l 1
 384 663 l 1
 210 663 l 1
 223 723 l 1
 666 723 l 1
 654 663 l 1
 480 663 l 1
 360 60 l 1
 534 60 l 1
 521 0 l 1
 78 0 l 1
408 783 m 1
 545 940 l 1
 657 940 l 1
 468 783 l 1
 408 783 l 1
EndSplineSet
EndChar
StartChar: Icircumflex
Encoding: 206 206 23
Width: 600
Flags: MW
HStem: 0 60<78 264 90 264 360 521> 663 60<223 384 210 666 480 480 480 654>
LayerCount: 2
Fore
SplineSet
78 0 m 1
 90 60 l 1
 264 60 l 1
 384 663 l 1
 210 663 l 1
 223 723 l 1
 666 723 l 1
 654 663 l 1
 480 663 l 1
 360 60 l 1
 534 60 l 1
 521 0 l 1
 78 0 l 1
278 783 m 1
 434 940 l 1
 541 940 l 1
 635 783 l 1
 575 783 l 1
 476 881 l 1
 475 881 l 1
 338 783 l 1
 278 783 l 1
EndSplineSet
EndChar
StartChar: Ntilde
Encoding: 209 209 29
Width: 600
Flags: W
HStem: 0 20 703 20<181 295 295 295 540 708 708 708> 783 59<527.5 544.5 527.5 552> 839 59<381.5 398.5>
LayerCount: 2
Fore
SplineSet
36 0 m 1xd0
 48 60 l 1
 102 60 l 1
 223 663 l 1
 168 663 l 1
 181 723 l 1
 295 723 l 1
 488 198 l 1
 489 198 l 1
 582 663 l 1
 528 663 l 1
 540 723 l 1
 708 723 l 1
 696 663 l 1
 642 663 l 1
 510 0 l 1
 449 0 l 1
 257 526 l 1
 256 526 l 1
 162 60 l 1
 217 60 l 1
 204 0 l 1
 36 0 l 1xd0
343 783 m 1
 289 783 l 1
 311 864 345 898 403 898 c 0x10
 426 898 447 891 465 879 c 2
 490 861 l 2
 509 848 522 842 533 842 c 0
 556 842 572 859 583 897 c 1
 637 897 l 1
 615 817 581 783 523 783 c 0x20
 500 783 479 789 462 802 c 2
 436 820 l 2
 415 834 404 839 393 839 c 0
 370 839 355 822 343 783 c 1
EndSplineSet
EndChar
StartChar: Oacute
Encoding: 211 211 31
Width: 600
Flags: MW
HStem: -18 60<270.5 338.5 270.5 343.5> 681 60<404.5 476.5>
VStem: 92 101<165.5 281.5 161.5 313.5> 555 100<436.5 558 410 561.5>
LayerCount: 2
Fore
SplineSet
451 741 m 0
 579 741 655 642 655 474 c 0
 655 346 618 229 547 131 c 0
 476 32 391 -18 296 -18 c 0
 168 -18 92 82 92 249 c 0
 92 378 129 495 200 593 c 0
 271 691 356 741 451 741 c 0
437 681 m 0
 372 681 315 634 266 542 c 0
 219 451 193 340 193 223 c 0
 193 100 231 42 310 42 c 0
 367 42 417 75 459 141 c 0
 519 235 555 372 555 501 c 0
 555 622 516 681 437 681 c 0
398 783 m 1
 534 940 l 1
 646 940 l 1
 458 783 l 1
 398 783 l 1
EndSplineSet
EndChar
StartChar: Otilde
Encoding: 213 213 34
Width: 600
Flags: W
HStem: -18 60<270.5 338.5 270.5 343.5> 681 60<404.5 476.5> 783 59<534 551.5 534 558.5> 839 59<387.5 405>
VStem: 92 101<165.5 281.5 161.5 313.5> 555 100<436.5 558 410 561.5>
LayerCount: 2
Fore
SplineSet
451 741 m 0xdc
 579 741 655 642 655 474 c 0
 655 346 618 229 547 131 c 0
 476 32 391 -18 296 -18 c 0
 168 -18 92 82 92 249 c 0
 92 378 129 495 200 593 c 0
 271 691 356 741 451 741 c 0xdc
437 681 m 0
 372 681 315 634 266 542 c 0
 219 451 193 340 193 223 c 0
 193 100 231 42 310 42 c 0
 367 42 417 75 459 141 c 0
 519 235 555 372 555 501 c 0
 555 622 516 681 437 681 c 0
350 783 m 1
 295 783 l 1
 317 864 351 898 409 898 c 0x1c
 432 898 454 891 471 879 c 2
 496 861 l 2
 514 848 528 842 540 842 c 0
 563 842 578 859 590 897 c 1
 643 897 l 1
 621 817 587 783 530 783 c 0x2c
 507 783 485 790 468 802 c 2
 443 820 l 2
 424 833 411 839 399 839 c 0
 376 839 361 821 350 783 c 1
EndSplineSet
EndChar
StartChar: Odieresis
Encoding: 214 214 30
Width: 600
Flags: MW
HStem: -18 60<270.5 338.5 270.5 343.5> 681 60<404.5 476.5> 783 96<295 411 315 392 544 621>
VStem: 92 101<165.5 281.5 161.5 313.5> 555 100<436.5 558 410 561.5>
LayerCount: 2
Fore
SplineSet
451 741 m 0
 579 741 655 642 655 474 c 0
 655 346 618 229 547 131 c 0
 476 32 391 -18 296 -18 c 0
 168 -18 92 82 92 249 c 0
 92 378 129 495 200 593 c 0
 271 691 356 741 451 741 c 0
437 681 m 0
 372 681 315 634 266 542 c 0
 219 451 193 340 193 223 c 0
 193 100 231 42 310 42 c 0
 367 42 417 75 459 141 c 0
 519 235 555 372 555 501 c 0
 555 622 516 681 437 681 c 0
295 783 m 1
 315 879 l 1
 411 879 l 1
 392 783 l 1
 295 783 l 1
524 783 m 1
 544 879 l 1
 640 879 l 1
 621 783 l 1
 524 783 l 1
EndSplineSet
EndChar
StartChar: multiply
Encoding: 215 215 261
Width: 600
Flags: MW
HStem: 0 20
LayerCount: 2
Fore
SplineSet
59 51 m 1
 300 252 l 1
 139 453 l 1
 201 504 l 1
 361 303 l 1
 602 504 l 1
 643 453 l 1
 402 252 l 1
 562 51 l 1
 501 0 l 1
 341 201 l 1
 100 0 l 1
 59 51 l 1
EndSplineSet
EndChar
StartChar: Oslash
Encoding: 216 216 161
Width: 600
Flags: MW
HStem: -18 20 721 20<401 479.5 660 717 717 717>
LayerCount: 2
Fore
SplineSet
192 181 m 1
 541 598 l 1
 522 656 489 681 435 681 c 0
 370 681 317 641 272 557 c 0
 217 456 190 344 190 221 c 0
 190 212 191 190 192 181 c 1
551 542 m 1
 202 124 l 1
 222 67 254 42 308 42 c 0
 373 42 426 82 471 166 c 0
 524 264 553 381 553 497 c 0
 553 513 553 522 551 537 c 2
 551 542 l 1
26 -18 m 1
 118 93 l 1
 98 142 90 188 90 250 c 0
 90 378 127 495 198 593 c 0
 269 691 354 741 448 741 c 0
 511 741 556 720 601 670 c 1
 660 741 l 1
 717 741 l 1
 625 630 l 1
 645 580 654 534 654 474 c 0
 654 345 617 229 546 131 c 0
 474 32 389 -18 295 -18 c 0
 232 -18 188 3 143 54 c 1
 83 -18 l 1
 26 -18 l 1
EndSplineSet
EndChar
StartChar: Udieresis
Encoding: 220 220 42
Width: 600
Flags: MW
HStem: -18 60<299 366> 703 20<174 398 398 398 527 714 714 714> 783 96<312 427 331 408 560 637>
VStem: 130 97<126.5 164>
LayerCount: 2
Fore
SplineSet
223 663 m 1
 162 663 l 1
 174 723 l 1
 398 723 l 1
 385 663 l 1
 319 663 l 1
 238 256 l 2
 231 219 227 187 227 162 c 0
 227 91 269 42 329 42 c 0
 414 42 472 115 501 260 c 2
 582 663 l 1
 515 663 l 1
 527 723 l 1
 714 723 l 1
 702 663 l 1
 642 663 l 1
 558 242 l 2
 525 77 431 -18 301 -18 c 0
 195 -18 130 45 130 147 c 0
 130 181 135 226 144 269 c 2
 223 663 l 1
312 783 m 1
 331 879 l 1
 427 879 l 1
 408 783 l 1
 312 783 l 1
541 783 m 1
 560 879 l 1
 656 879 l 1
 637 783 l 1
 541 783 l 1
EndSplineSet
EndChar
StartChar: Thorn
Encoding: 222 222 165
Width: 600
Flags: MW
HStem: 0 60<54 150 247 331 42 150> 663 60<187 271 174 476 367 367 367 464>
VStem: 528 106<415 454>
LayerCount: 2
Fore
SplineSet
351 582 m 1
 443 582 l 2
 571 582 634 537 634 447 c 0
 634 383 606 317 555 260 c 0
 488 187 395 151 271 151 c 2
 265 151 l 1
 247 60 l 1
 343 60 l 1
 331 0 l 1
 42 0 l 1
 54 60 l 1
 150 60 l 1
 271 663 l 1
 174 663 l 1
 187 723 l 1
 476 723 l 1
 464 663 l 1
 367 663 l 1
 351 582 l 1
277 211 m 1
 283 211 l 2
 425 211 528 299 528 420 c 0
 528 488 484 521 393 521 c 2
 339 521 l 1
 277 211 l 1
EndSplineSet
EndChar
StartChar: germandbls
Encoding: 223 223 195
Width: 600
Flags: W
HStem: -12 61<425.5 462 425.5 468> 0 20 724 60<413 473.5>
VStem: 326 94<383.5 446.5> 528 87<125 158> 528 98<663.5 690>
LayerCount: 2
Fore
SplineSet
30 0 m 1x74
 42 60 l 1
 108 60 l 1
 204 539 l 2
 223 634 238 676 264 707 c 0
 308 759 370 784 456 784 c 0
 568 784 626 750 626 686 c 0xa4
 626 641 597 598 541 558 c 2
 467 506 l 2
 436 484 420 459 420 434 c 0
 420 416 434 396 467 367 c 2
 523 318 l 2
 603 247 615 228 615 178 c 0
 615 72 525 -12 411 -12 c 0
 373 -12 337 -6 296 6 c 1
 323 142 l 1
 377 142 l 1
 375 69 l 1
 397 55 415 49 436 49 c 0
 488 49 528 92 528 147 c 0xb8
 528 169 515 193 490 214 c 2
 448 251 l 1
 397 296 l 2
 347 341 326 370 326 397 c 0
 326 437 351 479 400 520 c 2
 457 569 l 2
 505 609 528 643 528 673 c 0
 528 707 501 724 446 724 c 0
 367 724 331 694 315 614 c 2
 204 60 l 1
 265 60 l 1
 253 0 l 1
 30 0 l 1x74
EndSplineSet
EndChar
StartChar: atilde
Encoding: 227 227 71
Width: 600
Flags: W
HStem: -12 72<254.5 267> 0 20 481 61<410 434.5> 627 59<514.5 532 514.5 539> 682 60<368.5 385.5>
VStem: 100 104<101.5 169.5 101.5 178> 492 100<421 481.5>
LayerCount: 2
Fore
SplineSet
420 0 m 1
 422 58 l 1
 351 8 298 -12 236 -12 c 0x86
 146 -12 100 29 100 108 c 0
 100 248 212 319 432 319 c 2
 474 319 l 1
 490 401 l 2
 491 405 492 418 492 424 c 0
 492 461 462 481 407 481 c 0
 371 481 334 473 276 453 c 1
 251 391 l 1
 191 391 l 1
 212 497 l 1
 296 528 370 542 450 542 c 0
 545 542 592 512 592 451 c 0
 592 438 590 416 586 400 c 2
 518 60 l 1
 585 60 l 1
 573 0 l 1x66
 420 0 l 1
437 136 m 1x86
 462 259 l 1
 436 259 l 2
 276 259 204 217 204 122 c 0
 204 81 229 60 280 60 c 0
 331 60 377 82 437 136 c 1x86
330 627 m 1
 276 627 l 1
 298 707 332 742 390 742 c 0x08
 413 742 433 736 452 723 c 2
 477 704 l 2
 495 692 509 686 520 686 c 0
 544 686 559 703 570 742 c 1
 624 742 l 1
 602 661 568 627 510 627 c 0x10
 488 627 467 633 449 646 c 2
 423 664 l 2
 406 676 391 682 380 682 c 0x08
 357 682 341 665 330 627 c 1
EndSplineSet
EndChar
StartChar: ae
Encoding: 230 230 192
Width: 600
Flags: W
HStem: -12 72<451 453> -12 79<183 196.5> 265 60<245 320 299 308 410 547> 481 61<298.5 311.5> 482 60<515.5 531.5>
VStem: 46 101<107.5 173 107.5 176.5> 559 91<409.5 441>
LayerCount: 2
Fore
SplineSet
602 93 m 1xae
 588 21 l 1
 525 -2 475 -12 431 -12 c 0x86
 374 -12 336 14 304 75 c 1
 264 14 224 -12 169 -12 c 0
 95 -12 46 38 46 114 c 0
 46 239 150 325 299 325 c 2
 320 325 l 1
 334 394 l 2
 338 418 341 437 341 446 c 0
 341 469 326 481 297 481 c 0
 276 481 255 475 233 462 c 1
 208 396 l 1
 147 396 l 1
 170 509 l 1
 226 531 274 542 323 542 c 0x76
 375 542 403 523 419 478 c 1
 454 523 491 542 540 542 c 0
 613 542 650 494 650 399 c 0
 650 364 647 336 638 289 c 2
 634 265 l 1
 398 265 l 1
 395 240 l 2
 390 208 388 185 388 166 c 0
 388 103 424 60 478 60 c 0
 505 60 544 70 602 93 c 1xae
277 111 m 1x6e
 308 265 l 1
 293 265 l 2
 197 265 147 218 147 128 c 0
 147 87 165 67 201 67 c 0
 230 67 253 80 277 111 c 1x6e
410 325 m 1
 547 325 l 1
 555 365 559 398 559 421 c 0
 559 461 545 482 518 482 c 0
 472 482 439 434 410 325 c 1
EndSplineSet
EndChar
StartChar: ccedilla
Encoding: 231 231 76
Width: 600
Flags: MW
HStem: -211 42<262 281.5 254 304> -12 72<323 370> 0 20 482 60<375.5 443.5>
VStem: 123 104<158.5 283 158.5 301.5> 239 69
LayerCount: 2
Fore
SplineSet
526 98 m 1
 512 22 l 1
 457 -1 403 -12 337 -12 c 0
 194 -12 123 59 123 202 c 0
 123 401 259 542 450 542 c 0
 506 542 555 534 604 515 c 1
 570 347 l 1
 510 347 l 1
 517 460 l 1
 481 476 456 482 431 482 c 0
 320 482 227 358 227 208 c 0
 227 109 275 60 371 60 c 0x58
 418 60 465 71 526 98 c 1
302 0 m 1
 349 0 l 1
 309 -53 l 1
 365 -57 390 -78 390 -119 c 0
 390 -168 335 -211 273 -211 c 0
 251 -211 229 -208 205 -201 c 1
 213 -161 l 1
 228 -166 245 -169 263 -169 c 0
 300 -169 321 -154 321 -127 c 0
 321 -99 297 -87 238 -85 c 1xa4
 302 0 l 1
EndSplineSet
EndChar
StartChar: igrave
Encoding: 236 236 88
Width: 600
Flags: MW
HStem: 0 60<72 275 84 275 371 539> 469 61<178 356 166 465>
LayerCount: 2
Fore
SplineSet
72 0 m 1
 84 60 l 1
 275 60 l 1
 356 469 l 1
 166 469 l 1
 178 530 l 1
 465 530 l 1
 371 60 l 1
 551 60 l 1
 539 0 l 1xc0
 72 0 l 1
485 626 m 1
 424 626 l 1
 299 783 l 1
 410 783 l 1
 485 626 l 1
EndSplineSet
EndChar
StartChar: iacute
Encoding: 237 237 87
Width: 600
Flags: MW
HStem: 0 60<72 275 84 275 371 539> 469 61<178 356 166 465>
LayerCount: 2
Fore
SplineSet
72 0 m 1
 84 60 l 1
 275 60 l 1
 356 469 l 1
 166 469 l 1
 178 530 l 1
 465 530 l 1
 371 60 l 1
 551 60 l 1
 539 0 l 1xc0
 72 0 l 1
388 626 m 1
 525 783 l 1
 636 783 l 1
 448 626 l 1
 388 626 l 1
EndSplineSet
EndChar
StartChar: idieresis
Encoding: 239 239 86
Width: 600
Flags: MW
HStem: 0 60<72 275 84 275 371 539> 469 61<178 356 166 465> 627 96<273 389 293 370 521 598>
LayerCount: 2
Fore
SplineSet
72 0 m 1
 84 60 l 1
 275 60 l 1
 356 469 l 1
 166 469 l 1
 178 530 l 1
 465 530 l 1
 371 60 l 1
 551 60 l 1
 539 0 l 1
 72 0 l 1
273 627 m 1
 293 723 l 1
 389 723 l 1
 370 627 l 1
 273 627 l 1
502 627 m 1
 521 723 l 1
 618 723 l 1
 598 627 l 1
 502 627 l 1
EndSplineSet
EndChar
StartChar: eth
Encoding: 240 240 201
Width: 600
Flags: MW
HStem: -12 61<278.5 362 278.5 388.5> 470 61<356.5 411 356.5 429>
VStem: 102 102<151 241> 504 109<261.5 369>
LayerCount: 2
Fore
SplineSet
581 739 m 1
 483 681 l 1
 564 604 613 486 613 367 c 0
 613 156 475 -12 302 -12 c 0
 179 -12 102 69 102 198 c 0
 102 284 132 362 191 429 c 0
 250 496 319 531 394 531 c 0
 428 531 454 524 484 507 c 1
 455 566 428 605 397 630 c 1
 241 536 l 1
 215 587 l 1
 350 667 l 1
 313 696 263 711 200 711 c 1
 212 771 l 1
 225 771 l 2
 309 771 371 754 433 716 c 1
 556 788 l 1
 581 739 l 1
397 470 m 0
 296 470 204 339 204 196 c 0
 204 106 246 49 311 49 c 0
 413 49 504 179 504 326 c 0
 504 412 461 470 397 470 c 0
EndSplineSet
EndChar
StartChar: ntilde
Encoding: 241 241 94
Width: 600
Flags: W
HStem: 0 20 467 75<437 447.5> 510 20<140 297 297 297> 627 59<500.5 518 500.5 525> 682 60<354.5 371.5>
VStem: 489 100<418.5 424.5>
LayerCount: 2
Fore
SplineSet
34 0 m 1
 46 60 l 1
 106 60 l 1
 188 469 l 1
 128 469 l 1
 140 530 l 1
 297 530 l 1xa4
 276 428 l 1
 346 509 403 542 471 542 c 0
 549 542 589 503 589 429 c 0
 589 408 586 379 580 352 c 2
 522 60 l 1
 582 60 l 1
 570 0 l 1
 365 0 l 1
 377 60 l 1
 426 60 l 1
 482 342 l 2
 486 364 489 389 489 404 c 0
 489 445 468 467 427 467 c 0
 376 467 325 430 260 344 c 1
 202 60 l 1
 257 60 l 1
 245 0 l 1xc4
 34 0 l 1
316 627 m 1
 262 627 l 1
 284 707 318 742 376 742 c 0x08
 399 742 419 736 438 723 c 2
 463 704 l 2
 481 692 495 686 506 686 c 0
 530 686 545 703 556 742 c 1
 610 742 l 1
 588 661 554 627 496 627 c 0x10
 474 627 453 633 435 646 c 2
 409 664 l 2
 392 676 377 682 366 682 c 0x08
 343 682 327 665 316 627 c 1
EndSplineSet
EndChar
StartChar: ograve
Encoding: 242 242 97
Width: 600
Flags: MW
HStem: -12 61<273 365.5 273 383.5> 482 60<343 435.5>
VStem: 101 101<133.5 264 133.5 291.5> 507 101<267 397>
LayerCount: 2
Fore
SplineSet
408 542 m 0
 541 542 608 474 608 338 c 0
 608 137 474 -12 293 -12 c 0
 169 -12 101 60 101 192 c 0xf0
 101 391 233 542 408 542 c 0
399 482 m 0
 287 482 202 351 202 177 c 0
 202 90 237 49 309 49 c 0
 422 49 507 180 507 354 c 0
 507 440 472 482 399 482 c 0
487 626 m 1
 426 626 l 1
 301 783 l 1
 412 783 l 1
 487 626 l 1
EndSplineSet
EndChar
StartChar: otilde
Encoding: 245 245 99
Width: 600
Flags: W
HStem: -12 61<273 365.5 273 383.5> 482 60<343 435.5> 627 59<502.5 520 502.5 527> 682 60<356.5 373.5>
VStem: 101 101<133.5 264 133.5 291.5> 507 101<267 397>
LayerCount: 2
Fore
SplineSet
408 542 m 0
 541 542 608 474 608 338 c 0
 608 137 474 -12 293 -12 c 0
 169 -12 101 60 101 192 c 0xcc
 101 391 233 542 408 542 c 0
399 482 m 0
 287 482 202 351 202 177 c 0
 202 90 237 49 309 49 c 0
 422 49 507 180 507 354 c 0
 507 440 472 482 399 482 c 0
318 627 m 1
 264 627 l 1
 286 707 320 742 378 742 c 0x10
 401 742 421 736 440 723 c 2
 465 704 l 2
 483 692 497 686 508 686 c 0
 532 686 547 703 558 742 c 1
 612 742 l 1
 590 661 556 627 498 627 c 0x20
 476 627 455 633 437 646 c 2
 411 664 l 2
 394 676 379 682 368 682 c 0x10
 345 682 329 665 318 627 c 1
EndSplineSet
EndChar
StartChar: odieresis
Encoding: 246 246 95
Width: 600
Flags: MW
HStem: -12 61<273 365.5 273 383.5> 482 60<343 435.5> 627 96<264 379 283 360 512 589>
VStem: 101 101<133.5 264 133.5 291.5> 507 101<267 397>
LayerCount: 2
Fore
SplineSet
408 542 m 0
 541 542 608 474 608 338 c 0
 608 137 474 -12 293 -12 c 0
 169 -12 101 60 101 192 c 0xd8
 101 391 233 542 408 542 c 0
399 482 m 0
 287 482 202 351 202 177 c 0
 202 90 237 49 309 49 c 0
 422 49 507 180 507 354 c 0
 507 440 472 482 399 482 c 0
264 627 m 1
 283 723 l 1
 379 723 l 1
 360 627 l 1x20
 264 627 l 1
493 627 m 1
 512 723 l 1
 608 723 l 1
 589 627 l 1
 493 627 l 1
EndSplineSet
EndChar
StartChar: divide
Encoding: 247 247 262
Width: 600
Flags: MW
HStem: 0 121<239 384 264 360> 265 72<101 619 115 604> 482 121<336 480 360 456>
LayerCount: 2
Fore
SplineSet
101 265 m 1
 115 337 l 1
 619 337 l 1
 604 265 l 1
 101 265 l 1
239 0 m 1
 264 121 l 1
 384 121 l 1
 360 0 l 1
 239 0 l 1
336 482 m 1
 360 603 l 1
 480 603 l 1
 456 482 l 1
 336 482 l 1
EndSplineSet
EndChar
StartChar: oslash
Encoding: 248 248 194
Width: 600
Flags: MW
HStem: -12 60<289.5 365.5 289.5 384> 482 60<340.5 415.5>
VStem: 100 101<168.5 261.5 168.5 293> 506 101<267.5 359.5>
LayerCount: 2
Fore
SplineSet
52 -12 m 1
 130 68 l 1
 109 108 100 143 100 193 c 0
 100 393 233 542 412 542 c 0
 472 542 514 528 550 497 c 1
 594 542 l 1
 655 542 l 1
 576 462 l 1
 599 422 607 387 607 336 c 0
 607 138 473 -12 295 -12 c 0
 234 -12 192 2 157 33 c 1
 113 -12 l 1
 52 -12 l 1
203 143 m 1
 489 435 l 1
 462 468 435 482 396 482 c 0
 285 482 201 349 201 174 c 0
 201 163 201 155 203 143 c 1
504 388 m 1
 219 96 l 1
 241 62 269 48 310 48 c 0
 421 48 506 181 506 354 c 0
 506 365 506 371 504 383 c 2
 504 388 l 1
EndSplineSet
EndChar
StartChar: ucircumflex
Encoding: 251 251 109
Width: 600
Flags: W
HStem: -12 76<262.5 273.5> 0 20 510 20<140 297 297 297 465 616 616 616>
VStem: 121 100<106.5 112.5>
LayerCount: 2
Fore
SplineSet
465 530 m 1
 616 530 l 1
 522 60 l 1
 582 60 l 1
 570 0 l 1
 413 0 l 1x70
 434 102 l 1
 364 21 308 -12 239 -12 c 0
 161 -12 121 27 121 102 c 0
 121 123 124 148 130 177 c 2
 188 469 l 1
 128 469 l 1
 140 530 l 1
 297 530 l 1
 228 188 l 2
 224 166 221 141 221 127 c 0
 221 86 242 64 283 64 c 0
 334 64 385 101 451 186 c 1
 508 469 l 1
 454 469 l 1xb0
 465 530 l 1
249 626 m 1
 406 783 l 1
 512 783 l 1
 606 626 l 1
 546 626 l 1
 448 725 l 1
 447 725 l 1
 310 626 l 1
 249 626 l 1
EndSplineSet
EndChar
StartChar: thorn
Encoding: 254 254 202
Width: 600
Flags: W
HStem: -193 60<4 64 160 269 -8 64> -12 72<289 334 289 385> 0 20 464 78<441 459>
VStem: 511 102<323 395.5>
LayerCount: 2
Fore
SplineSet
64 -133 m 1xa8
 233 711 l 1
 173 711 l 1
 185 771 l 1
 342 771 l 1
 271 422 l 1
 345 506 407 542 475 542 c 0
 561 542 613 476 613 366 c 0
 613 154 474 -12 296 -12 c 0xd8
 268 -12 236 -8 187 0 c 1
 160 -133 l 1
 281 -133 l 1
 269 -193 l 1
 -8 -193 l 1
 4 -133 l 1
 64 -133 l 1xa8
257 349 m 1
 201 71 l 1
 249 63 277 60 301 60 c 0
 367 60 416 87 451 144 c 0
 489 207 511 285 511 361 c 0
 511 430 485 464 433 464 c 0
 377 464 323 429 257 349 c 1
EndSplineSet
EndChar
StartChar: ydieresis
Encoding: 255 255 116
Width: 600
Flags: MW
HStem: -193 61<108 204 269 330 96 204> 0 20 469 61<133 157 121 351 261 261 261 339 500 566 631 631 631 667> 627 96<282 397 301 378 530 607>
LayerCount: 2
Fore
SplineSet
251 0 m 1
 157 469 l 1
 121 469 l 1
 133 530 l 1
 351 530 l 1
 339 469 l 1
 261 469 l 1
 337 90 l 1
 338 90 l 1
 566 469 l 1
 488 469 l 1
 500 530 l 1
 679 530 l 1
 667 469 l 1
 631 469 l 1
 349 0 l 1
 269 -132 l 1
 342 -132 l 1
 330 -193 l 1
 96 -193 l 1
 108 -132 l 1
 204 -132 l 1
 284 0 l 1xe0
 251 0 l 1
282 627 m 1
 301 723 l 1
 397 723 l 1
 378 627 l 1x10
 282 627 l 1
511 627 m 1
 530 723 l 1
 626 723 l 1
 607 627 l 1
 511 627 l 1
EndSplineSet
EndChar
StartChar: abreve
Encoding: 294 259 70
Width: 600
Flags: W
HStem: -12 72<254.5 267> 0 20 481 61<410 434.5> 629 69<418.5 477.5 418.5 482>
VStem: 100 104<101.5 169.5 101.5 178> 492 100<421 481.5>
LayerCount: 2
Fore
SplineSet
420 0 m 1
 422 58 l 1
 351 8 298 -12 236 -12 c 0x8c
 146 -12 100 29 100 108 c 0
 100 248 212 319 432 319 c 2
 474 319 l 1
 490 401 l 2
 491 405 492 418 492 424 c 0
 492 461 462 481 407 481 c 0
 371 481 334 473 276 453 c 1
 251 391 l 1
 191 391 l 1
 212 497 l 1
 296 528 370 542 450 542 c 0
 545 542 592 512 592 451 c 0
 592 438 590 416 586 400 c 2
 518 60 l 1
 585 60 l 1
 573 0 l 1x6c
 420 0 l 1
437 136 m 1x8c
 462 259 l 1
 436 259 l 2
 276 259 204 217 204 122 c 0
 204 81 229 60 280 60 c 0
 331 60 377 82 437 136 c 1x8c
294 771 m 1
 354 771 l 1
 360 720 389 698 448 698 c 0
 507 698 545 720 571 771 c 1
 631 771 l 1
 586 671 528 629 436 629 c 0
 386 629 350 642 326 669 c 0x10
 304 693 296 719 294 771 c 1
EndSplineSet
EndChar
StartChar: Aogonek
Encoding: 257 260 7
Width: 600
Flags: MW
HStem: -181 46<407 477> 0 60<24 60 123 181 12 60 386 462 563 587 450 462> 217 61<203 439 234 439 234 445> 703 20<398 491 491 491>
VStem: 350 70<-111 -95>
LayerCount: 2
Fore
SplineSet
203 217 m 1
 123 60 l 1
 193 60 l 1
 181 0 l 1
 12 0 l 1
 24 60 l 1
 60 60 l 1
 398 723 l 1
 491 723 l 1
 563 60 l 1
 599 60 l 1
 587 0 l 1
 374 0 l 1
 386 60 l 1
 462 60 l 1
 445 217 l 1
 203 217 l 1
234 278 m 1
 439 278 l 1
 403 607 l 1
 402 607 l 1
 234 278 l 1
450 0 m 1
 501 0 l 1
 444 -33 420 -62 420 -99 c 0
 420 -123 436 -135 468 -135 c 0
 486 -135 500 -132 513 -127 c 1
 506 -167 l 1
 482 -177 461 -181 435 -181 c 0
 379 -181 350 -160 350 -118 c 0
 350 -72 380 -36 450 0 c 1
EndSplineSet
EndChar
StartChar: aogonek
Encoding: 295 261 73
Width: 600
Flags: W
HStem: -181 46<392.5 462> -12 72<254.5 267> 0 20 481 61<410 434.5>
VStem: 100 70 100 104<101.5 169.5 101.5 178> 492 100<421 481.5>
LayerCount: 2
Fore
SplineSet
420 0 m 1
 422 58 l 1
 351 8 298 -12 236 -12 c 0x46
 146 -12 100 29 100 108 c 0
 100 248 212 319 432 319 c 2
 474 319 l 1
 490 401 l 2
 491 405 492 418 492 424 c 0
 492 461 462 481 407 481 c 0
 371 481 334 473 276 453 c 1
 251 391 l 1
 191 391 l 1
 212 497 l 1
 296 528 370 542 450 542 c 0
 545 542 592 512 592 451 c 0
 592 438 590 416 586 400 c 2
 518 60 l 1
 585 60 l 1
 573 0 l 1x36
 420 0 l 1
437 136 m 1x46
 462 259 l 1
 436 259 l 2
 276 259 204 217 204 122 c 0
 204 81 229 60 280 60 c 0
 331 60 377 82 437 136 c 1x46
435 0 m 1
 487 0 l 1
 430 -32 405 -62 405 -99 c 0
 405 -123 421 -135 453 -135 c 0
 471 -135 485 -132 499 -127 c 1
 491 -167 l 1
 468 -177 446 -181 421 -181 c 0
 364 -181 335 -160 335 -118 c 0xa8
 335 -72 366 -35 435 0 c 1
EndSplineSet
EndChar
StartChar: Cacute
Encoding: 258 262 9
Width: 600
Flags: MW
HStem: -18 66<332 389> 681 60<456 512.5>
VStem: 121 103<181 298 181 312>
LayerCount: 2
Fore
SplineSet
574 114 m 1
 558 36 l 1
 477 -3 421 -18 357 -18 c 0
 199 -18 121 69 121 245 c 0
 121 379 160 505 231 601 c 0
 301 695 390 741 504 741 c 0
 559 741 615 731 683 710 c 1
 649 542 l 1
 589 542 l 1
 598 655 l 1
 564 673 531 681 494 681 c 0
 418 681 357 640 308 556 c 0
 254 465 224 353 224 243 c 0
 224 119 282 48 382 48 c 0
 443 48 501 68 574 114 c 1
446 783 m 1
 582 940 l 1
 694 940 l 1
 506 783 l 1
 446 783 l 1
EndSplineSet
EndChar
StartChar: ccaron
Encoding: 297 269 75
Width: 600
Flags: MW
HStem: -12 72<323 370> 482 60<375.5 443.5>
VStem: 123 104<158.5 283 158.5 301.5>
LayerCount: 2
Fore
SplineSet
526 98 m 1
 512 22 l 1
 457 -1 403 -12 337 -12 c 0
 194 -12 123 59 123 202 c 0
 123 401 259 542 450 542 c 0
 506 542 555 534 604 515 c 1
 570 347 l 1
 510 347 l 1
 517 460 l 1
 481 476 456 482 431 482 c 0
 320 482 227 358 227 208 c 0
 227 109 275 60 371 60 c 0xe0
 418 60 465 71 526 98 c 1
670 783 m 1
 514 626 l 1
 407 626 l 1
 313 783 l 1
 373 783 l 1
 471 684 l 1
 473 684 l 1
 610 783 l 1
 670 783 l 1
EndSplineSet
EndChar
StartChar: Dcaron
Encoding: 260 270 11
Width: 600
Flags: MW
HStem: 0 60<24 108 36 108 205 263 263 282> 663 60<169 229 156 418 325 325 325 377>
VStem: 551 105<425 542>
LayerCount: 2
Fore
SplineSet
24 0 m 1
 36 60 l 1
 108 60 l 1
 229 663 l 1
 156 663 l 1
 169 723 l 1
 418 723 l 2
 582 723 656 649 656 484 c 0
 656 366 621 253 555 157 c 0
 483 52 393 0 282 0 c 2
 24 0 l 1
205 60 m 1
 263 60 l 2
 350 60 416 99 468 180 c 0
 522 264 551 368 551 476 c 0
 551 608 499 663 377 663 c 2
 325 663 l 1
 205 60 l 1
637 940 m 1
 480 783 l 1
 374 783 l 1
 279 940 l 1
 340 940 l 1
 438 841 l 1
 439 841 l 1
 577 940 l 1
 637 940 l 1
EndSplineSet
EndChar
StartChar: dcaron
Encoding: 298 271 77
Width: 600
Flags: W
HStem: -12 79<232.5 241.5> 0 20 470 72<338.5 386> 711 60<416 510 405 618>
VStem: 93 100<124.5 173.5 124.5 262>
LayerCount: 2
Fore
SplineSet
368 0 m 1x78
 389 108 l 1
 326 24 272 -12 211 -12 c 0x88
 137 -12 93 50 93 155 c 0
 93 369 222 542 381 542 c 0
 406 542 437 538 474 530 c 1
 510 711 l 1
 405 711 l 1
 416 771 l 1
 618 771 l 1
 476 60 l 1
 529 60 l 1
 517 0 l 1
 368 0 l 1x78
404 181 m 1xb8
 459 458 l 1
 423 466 397 470 375 470 c 0
 302 470 253 422 223 319 c 0
 204 256 193 194 193 153 c 0
 193 96 213 67 252 67 c 0
 305 67 351 102 404 181 c 1xb8
614 549 m 1
 619 578 l 1
 645 585 665 615 675 666 c 1
 676 675 l 1
 639 675 l 1
 658 771 l 1
 755 771 l 1
 738 687 l 2
 719 600 680 556 614 549 c 1
EndSplineSet
EndChar
StartChar: Dcroat
Encoding: 333 272 163
Width: 600
Flags: MW
HStem: 0 60<24 108 36 108 205 263 263 282> 350 60<106 166 94 178 274 395> 663 60<169 229 156 418 325 377 325 325>
VStem: 551 105<425 542>
LayerCount: 2
Fore
SplineSet
24 0 m 1
 36 60 l 1
 108 60 l 1
 166 350 l 1
 94 350 l 1
 106 410 l 1
 178 410 l 1
 229 663 l 1
 156 663 l 1
 169 723 l 1
 418 723 l 2
 582 723 656 649 656 484 c 0
 656 366 621 252 555 157 c 0
 483 52 393 0 282 0 c 2
 24 0 l 1
325 663 m 1
 274 410 l 1
 407 410 l 1
 395 350 l 1
 263 350 l 1
 205 60 l 1
 263 60 l 2
 350 60 417 99 468 180 c 0
 522 266 551 368 551 476 c 0
 551 608 499 663 377 663 c 2
 325 663 l 1
EndSplineSet
EndChar
StartChar: Emacron
Encoding: 283 274 55
Width: 600
Flags: W
HStem: 0 60<36 139 48 139 48 540> 0 66<236 493 236 540> 337 60<302 432 290 445> 663 60<181 259 168 660 355 355 355 588> 783 60<295 644 307 633>
LayerCount: 2
Fore
SplineSet
36 0 m 1x80
 48 60 l 1
 139 60 l 1x88
 259 663 l 1
 168 663 l 1
 181 723 l 1
 660 723 l 1
 625 548 l 1
 565 548 l 1
 588 663 l 1
 355 663 l 1
 302 397 l 1
 445 397 l 1
 456 458 l 1
 517 458 l 1
 481 276 l 1
 420 276 l 1
 432 337 l 1
 290 337 l 1
 236 66 l 1
 493 66 l 1x70
 517 187 l 1
 577 187 l 1
 540 0 l 1
 36 0 l 1x80
295 783 m 1
 307 843 l 1
 644 843 l 1
 633 783 l 1
 295 783 l 1
EndSplineSet
EndChar
StartChar: emacron
Encoding: 319 275 119
Width: 600
Flags: MW
HStem: -12 72<321 379> 247 60<231 504 231 594 218 504> 482 60<373.5 450.5> 626 61<279 628 291 616>
VStem: 516 96<384 421.5>
LayerCount: 2
Fore
SplineSet
594 247 m 1
 218 247 l 1
 218 241 l 1
 217 233 l 1
 216 211 l 1
 216 111 269 60 373 60 c 0
 428 60 482 73 551 103 c 1
 537 30 l 1
 473 1 413 -12 345 -12 c 0
 198 -12 113 68 113 208 c 0
 113 394 256 542 438 542 c 0
 554 542 612 488 612 380 c 0
 612 350 608 318 600 277 c 2xe8
 594 247 l 1
231 307 m 1
 504 307 l 1
 509 329 l 2
 514 355 516 376 516 392 c 0
 516 451 483 482 418 482 c 0
 329 482 263 421 231 307 c 1
279 626 m 1
 291 687 l 1
 628 687 l 1
 616 626 l 1x10
 279 626 l 1
EndSplineSet
EndChar
StartChar: Edotaccent
Encoding: 262 278 17
Width: 600
Flags: W
HStem: 0 60<36 139 48 139 48 540> 0 66<236 493 236 540> 337 60<302 432 290 445> 663 60<181 259 168 660 355 355 355 588> 783 96<422 537 441 518>
LayerCount: 2
Fore
SplineSet
36 0 m 1x80
 48 60 l 1
 139 60 l 1x88
 259 663 l 1
 168 663 l 1
 181 723 l 1
 660 723 l 1
 625 548 l 1
 565 548 l 1
 588 663 l 1
 355 663 l 1
 302 397 l 1
 445 397 l 1
 456 458 l 1
 517 458 l 1
 481 276 l 1
 420 276 l 1
 432 337 l 1
 290 337 l 1
 236 66 l 1
 493 66 l 1x70
 517 187 l 1
 577 187 l 1
 540 0 l 1
 36 0 l 1x80
422 783 m 1
 441 879 l 1
 537 879 l 1
 518 783 l 1
 422 783 l 1
EndSplineSet
EndChar
StartChar: Eogonek
Encoding: 263 280 18
Width: 600
Flags: W
HStem: -181 46<377.5 447> 0 60<36 139 48 139 48 540> 0 66<236 493 236 540 420 472 472 472> 337 60<302 432 290 445> 663 60<181 259 168 660 355 355 355 588>
VStem: 320 70<-111 -95>
LayerCount: 2
Fore
SplineSet
36 0 m 1x44
 48 60 l 1
 139 60 l 1xc4
 259 663 l 1
 168 663 l 1
 181 723 l 1
 660 723 l 1
 625 548 l 1
 565 548 l 1
 588 663 l 1
 355 663 l 1
 302 397 l 1
 445 397 l 1
 456 458 l 1
 517 458 l 1
 481 276 l 1
 420 276 l 1
 432 337 l 1
 290 337 l 1
 236 66 l 1
 493 66 l 1x3c
 517 187 l 1
 577 187 l 1
 540 0 l 1
 36 0 l 1x44
420 0 m 1
 472 0 l 1
 415 -33 390 -62 390 -99 c 0
 390 -123 406 -135 438 -135 c 0
 456 -135 471 -132 484 -127 c 1
 476 -167 l 1
 453 -177 432 -181 406 -181 c 0
 349 -181 320 -160 320 -118 c 0
 320 -72 350 -36 420 0 c 1
EndSplineSet
EndChar
StartChar: eogonek
Encoding: 301 281 84
Width: 600
Flags: MW
HStem: -181 46<330.5 400> -12 72<321 379> 0 20 247 60<231 504 231 594 218 504> 482 60<373.5 450.5>
VStem: 113 70 516 96<384 421.5>
LayerCount: 2
Fore
SplineSet
594 247 m 1
 218 247 l 1
 218 241 l 1
 217 233 l 1
 216 211 l 1
 216 111 269 60 373 60 c 0
 428 60 482 73 551 103 c 1
 537 30 l 1
 473 1 413 -12 345 -12 c 0
 198 -12 113 68 113 208 c 0
 113 394 256 542 438 542 c 0
 554 542 612 488 612 380 c 0
 612 350 608 318 600 277 c 2x5a
 594 247 l 1
231 307 m 1
 504 307 l 1
 509 329 l 2
 514 355 516 376 516 392 c 0
 516 451 483 482 418 482 c 0
 329 482 263 421 231 307 c 1
373 0 m 1
 425 0 l 1
 368 -32 343 -62 343 -99 c 0
 343 -123 359 -135 391 -135 c 0
 409 -135 423 -132 437 -127 c 1
 429 -167 l 1
 406 -177 384 -181 359 -181 c 0
 302 -181 273 -160 273 -118 c 0xa4
 273 -72 304 -35 373 0 c 1
EndSplineSet
EndChar
StartChar: gbreve
Encoding: 302 287 85
Width: 600
Flags: W
HStem: -205 61<208 304 208 315.5> 0 72<199 404 251 357> 155 60<297.5 362 286.5 375.5> 482 60<334 403.5 313 404.5> 629 69<384.5 443.5 384.5 448>
VStem: 22 101<-107 -95> 125 96<282.5 357 279.5 375.5> 434 101<-75.5 -31.5> 473 90<334.5 393.5 318 411.5>
LayerCount: 2
Fore
SplineSet
102 -12 m 2
 133 6 l 1
 110 22 99 38 99 58 c 0
 99 92 123 127 176 168 c 2
 196 184 l 1
 146 218 125 255 125 310 c 0
 125 441 239 542 387 542 c 0
 420 542 445 537 474 526 c 1
 676 542 l 1
 630 455 l 1
 534 471 l 1
 555 435 563 409 563 378 c 0xf280
 563 258 445 155 306 155 c 0
 289 155 272 157 249 161 c 1
 227 145 l 2
 200 125 188 109 188 94 c 0
 188 79 209 72 251 72 c 2
 404 72 l 2
 492 72 535 42 535 -21 c 0
 535 -132 410 -205 221 -205 c 0
 90 -205 22 -174 22 -113 c 0xf5
 22 -77 50 -42 102 -12 c 2
199 0 m 1xf5
 176 -15 l 2
 141 -38 123 -63 123 -89 c 0
 123 -125 166 -144 250 -144 c 0
 358 -144 434 -104 434 -47 c 0
 434 -16 409 0 357 0 c 2
 199 0 l 1xf5
375 482 m 0xf280
 293 482 221 403 221 311 c 0
 221 248 254 215 319 215 c 0
 405 215 473 288 473 381 c 0
 473 442 434 482 375 482 c 0xf280
260 771 m 1
 320 771 l 1
 326 720 355 698 414 698 c 0
 473 698 511 720 537 771 c 1
 597 771 l 1
 552 671 494 629 402 629 c 0
 352 629 316 642 292 669 c 0x08
 270 693 262 719 260 771 c 1
EndSplineSet
EndChar
StartChar: Gcommaaccent
Encoding: 291 290 63
Width: 600
Flags: MW
HStem: -211 42<267 292.5 266 312> -18 66<308 371.5> 262 60<412 485 400 593> 682 60<435.5 492>
VStem: 97 103<177 297 177 312> 333 67<-143.5 -119.5>
LayerCount: 2
Fore
SplineSet
593 322 m 1
 536 36 l 1
 466 -2 407 -18 336 -18 c 0
 176 -18 97 69 97 245 c 0
 97 379 136 505 207 601 c 0
 277 696 367 742 485 742 c 0
 543 742 596 732 659 711 c 1
 625 542 l 1
 565 542 l 1
 574 655 l 1
 538 674 509 682 475 682 c 0
 396 682 333 640 284 556 c 0
 230 464 200 352 200 242 c 0
 200 112 254 48 362 48 c 0
 389 48 413 53 445 64 c 1
 485 262 l 1
 400 262 l 1
 412 322 l 1
 593 322 l 1
218 -206 m 1
 226 -164 l 1
 242 -167 259 -169 273 -169 c 0
 312 -169 333 -156 333 -131 c 0
 333 -108 313 -97 264 -92 c 1
 272 -54 l 1
 361 -56 400 -77 400 -124 c 0
 400 -175 348 -211 276 -211 c 0
 258 -211 239 -209 218 -206 c 1
EndSplineSet
EndChar
StartChar: Imacron
Encoding: 284 298 56
Width: 600
Flags: MW
HStem: 0 60<78 264 90 264 360 521> 663 60<223 384 210 666 480 480 480 654> 783 60<287 637 300 625>
LayerCount: 2
Fore
SplineSet
78 0 m 1
 90 60 l 1
 264 60 l 1
 384 663 l 1
 210 663 l 1
 223 723 l 1
 666 723 l 1
 654 663 l 1
 480 663 l 1
 360 60 l 1
 534 60 l 1
 521 0 l 1
 78 0 l 1
287 783 m 1
 300 843 l 1
 637 843 l 1
 625 783 l 1
 287 783 l 1
EndSplineSet
EndChar
StartChar: imacron
Encoding: 320 299 120
Width: 600
Flags: MW
HStem: 0 60<72 275 84 275 371 539> 469 61<178 356 166 465> 626 61<245 594 257 582>
LayerCount: 2
Fore
SplineSet
72 0 m 1
 84 60 l 1
 275 60 l 1
 356 469 l 1
 166 469 l 1
 178 530 l 1
 465 530 l 1
 371 60 l 1
 551 60 l 1
 539 0 l 1xc0
 72 0 l 1
245 626 m 1
 257 687 l 1
 594 687 l 1
 582 626 l 1x20
 245 626 l 1
EndSplineSet
EndChar
StartChar: Iogonek
Encoding: 285 302 57
Width: 600
Flags: MW
HStem: -181 46<341 411> 0 60<78 264 90 264 360 521 384 435 435 435> 663 60<223 384 210 666 480 480 480 654>
VStem: 284 70<-111 -95>
LayerCount: 2
Fore
SplineSet
78 0 m 1
 90 60 l 1
 264 60 l 1
 384 663 l 1
 210 663 l 1
 223 723 l 1
 666 723 l 1
 654 663 l 1
 480 663 l 1
 360 60 l 1
 534 60 l 1
 521 0 l 1
 78 0 l 1
384 0 m 1
 435 0 l 1
 378 -33 354 -62 354 -99 c 0
 354 -123 370 -135 402 -135 c 0
 420 -135 435 -132 448 -127 c 1
 440 -167 l 1
 417 -177 395 -181 369 -181 c 0
 313 -181 284 -160 284 -118 c 0
 284 -72 315 -35 384 0 c 1
EndSplineSet
EndChar
StartChar: iogonek
Encoding: 331 303 131
Width: 600
Flags: MW
HStem: -181 46<359.5 429> 0 20 0 60<72 275 84 275 371 539 402 454 454 454> 469 61<178 356 166 465> 650 121<388 520 412 496>
VStem: 72 70
LayerCount: 2
Fore
SplineSet
72 0 m 1
 84 60 l 1
 275 60 l 1
 356 469 l 1
 166 469 l 1
 178 530 l 1
 465 530 l 1
 371 60 l 1
 551 60 l 1
 539 0 l 1x38
 72 0 l 1
388 650 m 1
 412 771 l 1
 520 771 l 1
 496 650 l 1
 388 650 l 1
402 0 m 1
 454 0 l 1
 397 -32 372 -62 372 -99 c 0
 372 -123 388 -135 420 -135 c 0
 438 -135 452 -132 466 -127 c 1
 458 -167 l 1
 435 -177 413 -181 388 -181 c 0
 331 -181 302 -160 302 -118 c 0xc4
 302 -72 333 -35 402 0 c 1
EndSplineSet
EndChar
StartChar: Idotaccent
Encoding: 265 304 24
Width: 600
Flags: MW
HStem: 0 60<78 264 90 264 360 521> 663 60<223 384 210 666 480 480 480 654> 783 96<408 524 428 504>
LayerCount: 2
Fore
SplineSet
78 0 m 1
 90 60 l 1
 264 60 l 1
 384 663 l 1
 210 663 l 1
 223 723 l 1
 666 723 l 1
 654 663 l 1
 480 663 l 1
 360 60 l 1
 534 60 l 1
 521 0 l 1
 78 0 l 1
408 783 m 1
 428 879 l 1
 524 879 l 1
 504 783 l 1
 408 783 l 1
EndSplineSet
EndChar
StartChar: Kcommaaccent
Encoding: 286 310 58
Width: 600
Flags: MW
HStem: -211 42<258.5 283.5 257 304> 0 20 703 20<181 391 391 391 499 673 673 673>
VStem: 324 67<-143.5 -119.5>
LayerCount: 2
Fore
SplineSet
36 0 m 1
 48 60 l 1
 111 60 l 1
 232 663 l 1
 168 663 l 1
 181 723 l 1
 391 723 l 1
 379 663 l 1
 328 663 l 1
 269 369 l 1
 273 369 l 1
 542 663 l 1
 488 663 l 1
 499 723 l 1
 673 723 l 1
 661 663 l 1
 616 663 l 1
 369 396 l 1
 560 60 l 1
 597 60 l 1
 584 0 l 1
 377 0 l 1
 389 60 l 1
 443 60 l 1
 271 362 l 1
 268 362 l 1
 208 60 l 1
 268 60 l 1
 256 0 l 1
 36 0 l 1
209 -206 m 1
 217 -164 l 1
 234 -167 250 -169 264 -169 c 0
 303 -169 324 -156 324 -131 c 0
 324 -108 304 -96 256 -92 c 1
 263 -54 l 1
 352 -56 391 -77 391 -124 c 0
 391 -175 340 -211 268 -211 c 0
 249 -211 230 -209 209 -206 c 1
EndSplineSet
EndChar
StartChar: kcommaaccent
Encoding: 321 311 121
Width: 600
Flags: MW
HStem: -211 42<250 275 248.5 295> 0 20 469 61<429 474 417 640 558 558 558 628>
VStem: 152 67
LayerCount: 2
Fore
SplineSet
401 0 m 1
 412 60 l 1
 256 255 l 1
 244 255 l 1
 204 60 l 1
 253 60 l 1
 241 0 l 1
 36 0 l 1
 48 60 l 1
 108 60 l 1
 239 711 l 1
 178 711 l 1
 190 771 l 1
 347 771 l 1
 250 289 l 1
 263 289 l 1
 474 469 l 1
 417 469 l 1
 429 530 l 1
 640 530 l 1
 628 469 l 1
 558 469 l 1
 346 293 l 1
 537 60 l 1
 586 60 l 1
 574 0 l 1x60
 401 0 l 1
200 -206 m 1
 209 -164 l 1
 226 -167 242 -169 255 -169 c 0
 295 -169 316 -155 316 -131 c 0
 316 -108 295 -97 247 -92 c 1
 255 -54 l 1
 344 -56 383 -77 383 -124 c 0
 383 -175 331 -211 259 -211 c 0x90
 241 -211 221 -209 200 -206 c 1
EndSplineSet
EndChar
StartChar: Lacute
Encoding: 266 313 25
Width: 600
Flags: W
HStem: 0 60<54 174 54 562 42 174> 0 66<272 515 272 562> 663 60<187 295 174 518 392 392 392 506>
LayerCount: 2
Fore
SplineSet
562 0 m 1x80
 42 0 l 1
 54 60 l 1
 174 60 l 1x80
 295 663 l 1
 174 663 l 1
 187 723 l 1
 518 723 l 1
 506 663 l 1
 392 663 l 1
 272 66 l 1
 515 66 l 1x60
 549 235 l 1
 609 235 l 1
 562 0 l 1x80
355 783 m 1
 492 940 l 1
 604 940 l 1
 416 783 l 1
 355 783 l 1
EndSplineSet
EndChar
StartChar: lacute
Encoding: 303 314 90
Width: 600
Flags: MW
HStem: 0 60<72 275 84 275 371 539> 711 60<226 405 214 513>
LayerCount: 2
Fore
SplineSet
72 0 m 1
 84 60 l 1
 275 60 l 1
 405 711 l 1
 214 711 l 1
 226 771 l 1
 513 771 l 1
 371 60 l 1
 551 60 l 1
 539 0 l 1xc0
 72 0 l 1
426 819 m 1
 563 976 l 1
 674 976 l 1
 486 819 l 1
 426 819 l 1
EndSplineSet
EndChar
StartChar: Lcommaaccent
Encoding: 287 315 59
Width: 600
Flags: W
HStem: -211 42<261.5 286.5 260 307> 0 60<54 174 54 562 42 174> 0 66<272 515 272 562> 663 60<187 295 174 518 392 392 392 506>
VStem: 327 67<-143.5 -119.5>
LayerCount: 2
Fore
SplineSet
562 0 m 1x48
 42 0 l 1
 54 60 l 1
 174 60 l 1xc8
 295 663 l 1
 174 663 l 1
 187 723 l 1
 518 723 l 1
 506 663 l 1
 392 663 l 1
 272 66 l 1
 515 66 l 1x38
 549 235 l 1
 609 235 l 1
 562 0 l 1x48
212 -206 m 1
 220 -164 l 1
 238 -167 253 -169 267 -169 c 0
 306 -169 327 -156 327 -131 c 0
 327 -108 307 -96 259 -92 c 1
 266 -54 l 1
 355 -56 394 -77 394 -124 c 0
 394 -175 343 -211 271 -211 c 0
 252 -211 233 -209 212 -206 c 1
EndSplineSet
EndChar
StartChar: lcommaaccent
Encoding: 322 316 122
Width: 600
Flags: MW
HStem: -211 42<253 278 251.5 298> 0 60<72 275 84 275 371 539> 711 60<226 405 214 513>
VStem: 188 67
LayerCount: 2
Fore
SplineSet
72 0 m 1
 84 60 l 1
 275 60 l 1
 405 711 l 1
 214 711 l 1
 226 771 l 1
 513 771 l 1
 371 60 l 1
 551 60 l 1
 539 0 l 1x60
 72 0 l 1
203 -206 m 1
 212 -164 l 1
 229 -167 245 -169 258 -169 c 0
 298 -169 319 -155 319 -131 c 0
 319 -108 298 -97 250 -92 c 1
 258 -54 l 1
 347 -56 386 -77 386 -124 c 0
 386 -175 334 -211 262 -211 c 0x90
 244 -211 224 -209 203 -206 c 1
EndSplineSet
EndChar
StartChar: Lcaron
Encoding: 267 317 26
Width: 600
Flags: W
HStem: 0 60<54 174 54 562 42 174> 0 66<272 515 272 562> 663 60<187 295 174 518 392 392 392 506>
LayerCount: 2
Fore
SplineSet
562 0 m 1x80
 42 0 l 1
 54 60 l 1
 174 60 l 1xa0
 295 663 l 1
 174 663 l 1
 187 723 l 1
 518 723 l 1
 506 663 l 1
 392 663 l 1
 272 66 l 1
 515 66 l 1x60
 549 235 l 1
 609 235 l 1
 562 0 l 1x80
558 501 m 1
 563 531 l 1
 590 538 608 567 619 619 c 1
 620 627 l 1
 583 627 l 1
 602 723 l 1
 699 723 l 1
 682 639 l 2
 664 552 624 508 558 501 c 1
EndSplineSet
EndChar
StartChar: lcaron
Encoding: 304 318 91
Width: 600
Flags: MW
HStem: 0 60<60 263 72 263 359 527> 711 60<214 393 202 501>
LayerCount: 2
Fore
SplineSet
60 0 m 1
 72 60 l 1
 263 60 l 1
 393 711 l 1
 202 711 l 1
 214 771 l 1
 501 771 l 1
 359 60 l 1
 539 60 l 1
 527 0 l 1
 60 0 l 1
553 549 m 1
 559 578 l 1
 586 586 602 611 614 666 c 2
 616 675 l 1
 578 675 l 1
 598 771 l 1
 694 771 l 1
 677 687 l 2
 659 601 619 556 553 549 c 1
EndSplineSet
EndChar
StartChar: Lslash
Encoding: 334 321 164
Width: 600
Flags: W
HStem: 0 60<42 174 54 174 54 562> 0 66<272 515 272 562> 663 60<187 295 174 518 392 392 392 506>
LayerCount: 2
Fore
SplineSet
42 0 m 1x80
 54 60 l 1
 174 60 l 1x80
 226 318 l 1
 94 258 l 1
 107 325 l 1
 240 386 l 1
 295 663 l 1
 174 663 l 1
 187 723 l 1
 518 723 l 1
 506 663 l 1
 392 663 l 1
 346 434 l 1
 504 506 l 1
 491 439 l 1
 332 366 l 1
 272 66 l 1
 515 66 l 1x60
 549 235 l 1
 609 235 l 1
 562 0 l 1
 42 0 l 1x80
EndSplineSet
EndChar
StartChar: lslash
Encoding: 339 322 200
Width: 600
Flags: MW
HStem: 0 60<72 275 84 275 371 539> 711 60<226 405 214 513>
LayerCount: 2
Fore
SplineSet
72 0 m 1
 84 60 l 1
 275 60 l 1
 334 355 l 1
 177 285 l 1
 191 352 l 1
 347 423 l 1
 405 711 l 1
 214 711 l 1
 226 771 l 1
 513 771 l 1
 453 471 l 1
 609 542 l 1
 596 475 l 1
 440 404 l 1
 371 60 l 1
 551 60 l 1
 539 0 l 1
 72 0 l 1
EndSplineSet
EndChar
StartChar: Nacute
Encoding: 268 323 27
Width: 600
Flags: MW
HStem: 0 20 703 20<181 295 295 295 540 708 708 708>
LayerCount: 2
Fore
SplineSet
36 0 m 1
 48 60 l 1
 102 60 l 1
 223 663 l 1
 168 663 l 1
 181 723 l 1
 295 723 l 1
 488 198 l 1
 489 198 l 1
 582 663 l 1
 528 663 l 1
 540 723 l 1
 708 723 l 1
 696 663 l 1
 642 663 l 1
 510 0 l 1
 449 0 l 1
 257 526 l 1
 256 526 l 1
 162 60 l 1
 217 60 l 1
 204 0 l 1
 36 0 l 1
397 783 m 1
 534 940 l 1
 646 940 l 1
 458 783 l 1
 397 783 l 1
EndSplineSet
EndChar
StartChar: Ncommaaccent
Encoding: 288 325 60
Width: 600
Flags: MW
HStem: -211 42<243 268.5 242 288.5> 0 20 703 20<181 295 295 295 540 708 708 708>
VStem: 309 67<-143.5 -119.5>
LayerCount: 2
Fore
SplineSet
36 0 m 1
 48 60 l 1
 102 60 l 1
 223 663 l 1
 168 663 l 1
 181 723 l 1
 295 723 l 1
 488 198 l 1
 489 198 l 1
 582 663 l 1
 528 663 l 1
 540 723 l 1
 708 723 l 1
 696 663 l 1
 642 663 l 1
 510 0 l 1
 449 0 l 1
 257 526 l 1
 256 526 l 1
 162 60 l 1
 217 60 l 1
 204 0 l 1
 36 0 l 1
194 -206 m 1
 202 -164 l 1
 219 -167 235 -169 249 -169 c 0
 288 -169 309 -156 309 -131 c 0
 309 -108 289 -96 241 -92 c 1
 248 -54 l 1
 338 -56 376 -77 376 -124 c 0
 376 -175 325 -211 252 -211 c 0
 234 -211 215 -209 194 -206 c 1
EndSplineSet
EndChar
StartChar: ncommaaccent
Encoding: 323 326 123
Width: 600
Flags: W
HStem: -211 42<248 273 246.5 293> 0 20 467 75<437 447.5> 510 20<140 297 297 297>
VStem: 150 67 489 100<418.5 424.5>
LayerCount: 2
Fore
SplineSet
34 0 m 1
 46 60 l 1
 106 60 l 1
 188 469 l 1
 128 469 l 1
 140 530 l 1
 297 530 l 1x54
 276 428 l 1
 346 509 403 542 471 542 c 0
 549 542 589 503 589 429 c 0
 589 408 586 379 580 352 c 2
 522 60 l 1
 582 60 l 1
 570 0 l 1
 365 0 l 1
 377 60 l 1
 426 60 l 1
 482 342 l 2
 486 364 489 389 489 404 c 0
 489 445 468 467 427 467 c 0
 376 467 325 430 260 344 c 1
 202 60 l 1
 257 60 l 1
 245 0 l 1x64
 34 0 l 1
198 -206 m 1
 207 -164 l 1
 224 -167 240 -169 253 -169 c 0
 293 -169 314 -155 314 -131 c 0
 314 -108 293 -97 245 -92 c 1
 253 -54 l 1
 342 -56 381 -77 381 -124 c 0
 381 -175 329 -211 257 -211 c 0x88
 239 -211 219 -209 198 -206 c 1
EndSplineSet
EndChar
StartChar: Ncaron
Encoding: 269 327 28
Width: 600
Flags: MW
HStem: 0 20 703 20<181 295 295 295 540 708 708 708>
LayerCount: 2
Fore
SplineSet
36 0 m 1
 48 60 l 1
 102 60 l 1
 223 663 l 1
 168 663 l 1
 181 723 l 1
 295 723 l 1
 488 198 l 1
 489 198 l 1
 582 663 l 1
 528 663 l 1
 540 723 l 1
 708 723 l 1
 696 663 l 1
 642 663 l 1
 510 0 l 1
 449 0 l 1
 257 526 l 1
 256 526 l 1
 162 60 l 1
 217 60 l 1
 204 0 l 1
 36 0 l 1
666 940 m 1
 510 783 l 1
 403 783 l 1
 309 940 l 1
 369 940 l 1
 468 841 l 1
 469 841 l 1
 606 940 l 1
 666 940 l 1
EndSplineSet
EndChar
StartChar: ncaron
Encoding: 306 328 93
Width: 600
Flags: W
HStem: 0 20 467 75<437 447.5> 510 20<140 297 297 297>
VStem: 489 100<418.5 424.5>
LayerCount: 2
Fore
SplineSet
34 0 m 1
 46 60 l 1
 106 60 l 1
 188 469 l 1
 128 469 l 1
 140 530 l 1
 297 530 l 1xb0
 276 428 l 1
 346 509 403 542 471 542 c 0
 549 542 589 503 589 429 c 0
 589 408 586 379 580 352 c 2
 522 60 l 1
 582 60 l 1
 570 0 l 1
 365 0 l 1
 377 60 l 1
 426 60 l 1
 482 342 l 2
 486 364 489 389 489 404 c 0
 489 445 468 467 427 467 c 0
 376 467 325 430 260 344 c 1
 202 60 l 1
 257 60 l 1
 245 0 l 1xd0
 34 0 l 1
627 783 m 1
 471 626 l 1
 364 626 l 1
 270 783 l 1
 330 783 l 1
 428 684 l 1
 430 684 l 1
 567 783 l 1
 627 783 l 1
EndSplineSet
EndChar
StartChar: ohungarumlaut
Encoding: 307 337 100
Width: 600
Flags: MW
HStem: -12 61<273 365.5 273 383.5> 482 60<343 435.5>
VStem: 101 101<133.5 264 133.5 291.5> 507 101<267 397>
LayerCount: 2
Fore
SplineSet
408 542 m 0
 541 542 608 474 608 338 c 0
 608 137 474 -12 293 -12 c 0
 169 -12 101 60 101 192 c 0xf0
 101 391 233 542 408 542 c 0
399 482 m 0
 287 482 202 351 202 177 c 0
 202 90 237 49 309 49 c 0
 422 49 507 180 507 354 c 0
 507 440 472 482 399 482 c 0
285 626 m 1
 434 783 l 1
 527 783 l 1
 340 626 l 1
 285 626 l 1
457 626 m 1
 606 783 l 1
 699 783 l 1
 511 626 l 1
 457 626 l 1
EndSplineSet
EndChar
StartChar: OE
Encoding: 140 338 160
Width: 600
Flags: W
HStem: -18 60<210 229> 0 66<404 523 404 570> 343 61<472 530 460 542> 663 60<524 630 524 524> 681 60<328 378>
VStem: 72 91<123 193 122 239.5>
LayerCount: 2
Fore
SplineSet
298 0 m 1x74
 305 36 l 1
 276 -3 249 -18 209 -18 c 0
 119 -18 72 54 72 192 c 0
 72 287 95 409 131 508 c 0
 185 655 270 741 361 741 c 0x8c
 402 741 423 725 435 687 c 1
 442 723 l 1
 703 723 l 1
 672 570 l 1
 612 570 l 1
 630 663 l 1
 524 663 l 1
 472 404 l 1
 542 404 l 1
 554 464 l 1
 609 464 l 1
 572 283 l 1
 518 283 l 1
 530 343 l 1
 460 343 l 1
 404 66 l 1
 523 66 l 1
 546 180 l 1
 606 180 l 1
 570 0 l 1
 298 0 l 1x74
333 177 m 2x8c
 406 546 l 2
 412 574 415 597 415 613 c 0
 415 658 396 681 360 681 c 0
 296 681 248 609 209 458 c 0
 183 356 163 225 163 161 c 0
 163 83 187 42 233 42 c 0
 282 42 315 87 333 177 c 2x8c
EndSplineSet
EndChar
StartChar: oe
Encoding: 156 339 193
Width: 600
Flags: W
HStem: -12 61<196.5 225.5> -12 72<451 459> 259 60<424 550 424 628 411 550> 481 61<521 542> 482 60<266 318>
VStem: 68 90<118 235.5 118 271.5> 567 83<416.5 443.5>
LayerCount: 2
Fore
SplineSet
597 102 m 1x76
 582 27 l 1
 524 0 480 -12 438 -12 c 0x4e
 385 -12 352 9 328 58 c 1
 290 9 251 -12 200 -12 c 0
 112 -12 68 49 68 172 c 0
 68 371 181 542 312 542 c 0x8e
 366 542 398 519 417 464 c 1
 457 519 496 542 546 542 c 0
 614 542 650 498 650 412 c 0
 650 382 646 349 635 296 c 2
 628 259 l 1
 411 259 l 1
 403 217 399 185 399 159 c 0
 399 93 425 60 477 60 c 0
 511 60 547 73 597 102 c 1x76
302 482 m 0
 230 482 158 318 158 153 c 0
 158 83 177 49 216 49 c 0xae
 252 49 279 80 299 142 c 0
 327 231 350 354 350 415 c 0
 350 460 334 482 302 482 c 0
424 319 m 1
 550 319 l 1
 556 349 l 2
 565 395 567 408 567 425 c 0
 567 462 554 481 530 481 c 0x36
 484 481 451 432 424 319 c 1
EndSplineSet
EndChar
StartChar: racute
Encoding: 308 341 101
Width: 600
Flags: W
HStem: 0 60<48 175 271 439 36 175> 458 84<505 514> 469 61<142 257 130 365>
LayerCount: 2
Fore
SplineSet
328 342 m 1
 271 60 l 1
 451 60 l 1
 439 0 l 1
 36 0 l 1
 48 60 l 1
 175 60 l 1
 257 469 l 1
 130 469 l 1
 142 530 l 1
 365 530 l 1xa0
 344 427 l 1
 418 509 473 542 537 542 c 0
 576 542 609 532 641 508 c 1
 610 348 l 1
 549 348 l 1
 557 440 l 1
 541 453 525 458 503 458 c 0x40
 442 458 387 422 328 342 c 1
336 626 m 1
 473 783 l 1
 584 783 l 1
 396 626 l 1
 336 626 l 1
EndSplineSet
EndChar
StartChar: Rcommaaccent
Encoding: 290 342 62
Width: 600
Flags: MW
HStem: -211 42<273.5 298.5 272 319> 0 20 663 60<187 238 174 473 334 334 334 421>
VStem: 339 67<-143 -119.5> 523 104<535.5 607>
LayerCount: 2
Fore
SplineSet
42 0 m 1
 54 60 l 1
 117 60 l 1
 238 663 l 1
 174 663 l 1
 187 723 l 1
 473 723 l 2
 575 723 627 676 627 584 c 0
 627 487 577 415 461 346 c 1
 557 60 l 1
 600 60 l 1
 588 0 l 1
 464 0 l 1
 362 316 l 1
 265 316 l 1
 214 60 l 1
 277 60 l 1
 265 0 l 1
 42 0 l 1
277 376 m 1
 325 376 l 2
 443 376 523 457 523 574 c 0
 523 640 496 663 421 663 c 2
 334 663 l 1
 277 376 l 1
224 -206 m 1
 232 -164 l 1
 249 -167 265 -169 279 -169 c 0
 318 -169 339 -155 339 -131 c 0
 339 -108 319 -97 271 -92 c 1
 278 -54 l 1
 367 -56 406 -77 406 -124 c 0
 406 -175 355 -211 283 -211 c 0
 264 -211 245 -209 224 -206 c 1
EndSplineSet
EndChar
StartChar: rcommaaccent
Encoding: 325 343 125
Width: 600
Flags: W
HStem: -211 42<220 245 218.5 265> 0 60<48 175 271 439 36 175> 458 84<505 514> 469 61<142 257 130 365>
VStem: 152 67
LayerCount: 2
Fore
SplineSet
328 342 m 1
 271 60 l 1
 451 60 l 1
 439 0 l 1
 36 0 l 1
 48 60 l 1
 175 60 l 1
 257 469 l 1
 130 469 l 1
 142 530 l 1
 365 530 l 1x50
 344 427 l 1
 418 509 473 542 537 542 c 0
 576 542 609 532 641 508 c 1
 610 348 l 1
 549 348 l 1
 557 440 l 1
 541 453 525 458 503 458 c 0x20
 442 458 387 422 328 342 c 1
170 -206 m 1
 179 -164 l 1
 196 -167 212 -169 225 -169 c 0
 265 -169 286 -155 286 -131 c 0
 286 -108 265 -97 217 -92 c 1
 225 -54 l 1
 314 -56 353 -77 353 -124 c 0
 353 -175 301 -211 229 -211 c 0x88
 211 -211 191 -209 170 -206 c 1
EndSplineSet
EndChar
StartChar: scedilla
Encoding: 329 351 129
Width: 600
Flags: MW
HStem: -211 42<245 264.5 237 287> -12 61<306 372 306 377> 0 20 482 60<349 417>
VStem: 161 95<375 415.5> 206 69 464 101<122.5 160>
LayerCount: 2
Fore
SplineSet
90 30 m 1
 119 175 l 1
 179 175 l 1
 173 85 l 1
 237 59 282 49 330 49 c 0
 414 49 464 84 464 143 c 0
 464 177 442 196 388 211 c 2
 294 238 l 2
 203 263 161 302 161 360 c 0
 161 471 257 542 408 542 c 0
 481 542 540 531 596 507 c 1
 568 367 l 1
 508 367 l 1
 513 456 l 1
 479 474 442 482 392 482 c 0
 306 482 256 449 256 390 c 0
 256 360 283 339 344 322 c 2
 438 296 l 2
 523 273 565 234 565 178 c 0
 565 67 455 -12 299 -12 c 0x5a
 224 -12 160 1 90 30 c 1
285 0 m 1
 332 0 l 1
 292 -53 l 1
 348 -57 373 -78 373 -119 c 0
 373 -168 318 -211 256 -211 c 0
 234 -211 212 -208 188 -201 c 1
 196 -161 l 1
 211 -166 228 -169 246 -169 c 0
 283 -169 304 -154 304 -127 c 0
 304 -99 280 -87 221 -85 c 1xa4
 285 0 l 1
EndSplineSet
EndChar
StartChar: scaron
Encoding: 154 353 103
Width: 600
Flags: MW
HStem: -12 61<306 372 306 377> 482 60<349 417>
VStem: 161 95<375 415.5> 464 101<122.5 160>
LayerCount: 2
Fore
SplineSet
90 30 m 1
 119 175 l 1
 179 175 l 1
 173 85 l 1
 237 59 282 49 330 49 c 0
 414 49 464 84 464 143 c 0
 464 177 442 196 388 211 c 2
 294 238 l 2
 203 263 161 302 161 360 c 0
 161 471 257 542 408 542 c 0
 481 542 540 531 596 507 c 1
 568 367 l 1
 508 367 l 1
 513 456 l 1
 479 474 442 482 392 482 c 0
 306 482 256 449 256 390 c 0
 256 360 283 339 344 322 c 2
 438 296 l 2
 523 273 565 234 565 178 c 0
 565 67 455 -12 299 -12 c 0xf0
 224 -12 160 1 90 30 c 1
641 783 m 1
 485 626 l 1
 378 626 l 1
 284 783 l 1
 344 783 l 1
 442 684 l 1
 444 684 l 1
 581 783 l 1
 641 783 l 1
EndSplineSet
EndChar
StartChar: Tcommaaccent
Encoding: 282 354 53
Width: 600
Flags: MW
HStem: -211 42<249 268.5 241 291.5> 0 60<125 264 137 264 360 475 137 336> 663 60<223 384 223 223 480 480 480 642>
VStem: 308 69<-140 -112>
LayerCount: 2
Fore
SplineSet
125 0 m 1
 137 60 l 1
 264 60 l 1
 384 663 l 1
 223 663 l 1
 196 531 l 1
 136 531 l 1
 174 723 l 1
 714 723 l 1
 676 531 l 1
 615 531 l 1
 642 663 l 1
 480 663 l 1
 360 60 l 1
 486 60 l 1
 475 0 l 1
 125 0 l 1
289 0 m 1
 336 0 l 1
 296 -53 l 1
 352 -57 377 -78 377 -119 c 0
 377 -168 323 -211 260 -211 c 0
 238 -211 216 -208 192 -201 c 1
 200 -161 l 1
 215 -166 232 -169 250 -169 c 0
 287 -169 308 -154 308 -126 c 0
 308 -98 284 -87 225 -85 c 1
 289 0 l 1
EndSplineSet
EndChar
StartChar: tcommaaccent
Encoding: 317 355 117
Width: 600
Flags: W
HStem: -211 43<266.5 285.5 257 308.5> -12 72<358.5 366> 0 20 452 66<161 284 148 297 394 588>
VStem: 325 69<-139.5 -112>
LayerCount: 2
Fore
SplineSet
523 98 m 1x58
 509 30 l 1
 448 1 395 -12 337 -12 c 0
 255 -12 214 17 214 76 c 0
 214 95 216 115 223 146 c 2
 284 452 l 1
 148 452 l 1
 161 518 l 1
 297 518 l 1
 323 650 l 1
 420 650 l 1
 394 518 l 1
 601 518 l 1
 588 452 l 1
 380 452 l 1
 328 190 l 2
 321 157 317 126 317 112 c 0
 317 78 338 60 379 60 c 0
 416 60 457 71 523 98 c 1x58
306 0 m 1xa8
 353 0 l 1
 313 -53 l 1
 369 -57 394 -78 394 -119 c 0
 394 -168 340 -211 277 -211 c 0
 256 -211 232 -207 209 -201 c 1
 217 -161 l 1
 232 -166 248 -168 266 -168 c 0
 305 -168 325 -153 325 -126 c 0
 325 -98 301 -87 242 -85 c 1
 306 0 l 1xa8
EndSplineSet
EndChar
StartChar: Tcaron
Encoding: 275 356 41
Width: 600
Flags: MW
HStem: 0 60<125 264 137 264 360 475> 663 60<223 384 223 223 480 480 480 642>
LayerCount: 2
Fore
SplineSet
125 0 m 1
 137 60 l 1
 264 60 l 1
 384 663 l 1
 223 663 l 1
 196 531 l 1
 136 531 l 1
 174 723 l 1
 714 723 l 1
 676 531 l 1
 615 531 l 1
 642 663 l 1
 480 663 l 1
 360 60 l 1
 486 60 l 1
 475 0 l 1
 125 0 l 1
667 940 m 1
 510 783 l 1
 403 783 l 1
 309 940 l 1
 369 940 l 1
 467 841 l 1
 469 841 l 1
 606 940 l 1
 667 940 l 1
EndSplineSet
EndChar
StartChar: tcaron
Encoding: 311 357 105
Width: 600
Flags: MW
HStem: -12 72<358.5 366> 452 66<161 284 148 297 394 588>
LayerCount: 2
Fore
SplineSet
523 98 m 1
 509 30 l 1
 448 1 395 -12 337 -12 c 0
 255 -12 214 17 214 76 c 0
 214 95 216 115 223 146 c 2
 284 452 l 1
 148 452 l 1
 161 518 l 1
 297 518 l 1
 323 650 l 1
 420 650 l 1
 394 518 l 1
 601 518 l 1
 588 452 l 1
 380 452 l 1
 328 190 l 2
 321 157 317 126 317 112 c 0
 317 78 338 60 379 60 c 0
 416 60 457 71 523 98 c 1
495 602 m 1
 501 631 l 1
 529 640 542 662 555 720 c 2
 557 727 l 1
 520 727 l 1
 539 824 l 1
 635 824 l 1
 619 740 l 2
 601 654 561 609 495 602 c 1
EndSplineSet
EndChar
StartChar: Uring
Encoding: 276 366 46
Width: 600
Flags: MW
HStem: -18 60<299 366> 703 20<174 398 398 398 527 714 714 714> 771 42<439 480 439 485> 951 42<463.5 504.5>
VStem: 130 97<126.5 164> 359 43<849.5 889.5 849.5 895> 542 43<874 914>
LayerCount: 2
Fore
SplineSet
223 663 m 1
 162 663 l 1
 174 723 l 1
 398 723 l 1
 385 663 l 1
 319 663 l 1
 238 256 l 2
 231 219 227 187 227 162 c 0
 227 91 269 42 329 42 c 0
 414 42 472 115 501 260 c 2
 582 663 l 1
 515 663 l 1
 527 723 l 1
 714 723 l 1
 702 663 l 1
 642 663 l 1
 558 242 l 2
 525 77 431 -18 301 -18 c 0
 195 -18 130 45 130 147 c 0
 130 181 135 226 144 269 c 2
 223 663 l 1
494 993 m 0
 548 993 585 956 585 904 c 0
 585 834 521 771 449 771 c 0
 396 771 359 808 359 860 c 0
 359 930 423 993 494 993 c 0
486 951 m 0
 441 951 402 912 402 867 c 0
 402 832 421 813 457 813 c 0
 503 813 542 852 542 896 c 0
 542 932 523 951 486 951 c 0
EndSplineSet
EndChar
StartChar: uring
Encoding: 312 367 110
Width: 600
Flags: W
HStem: -12 76<262.5 273.5> 0 20 510 20<140 297 297 297 465 616 616 616> 626 42<414 454.5 414 460> 806 42<438.5 479.5>
VStem: 121 43 121 100<106.5 112.5> 304 43
LayerCount: 2
Fore
SplineSet
465 530 m 1
 616 530 l 1
 522 60 l 1
 582 60 l 1
 570 0 l 1
 413 0 l 1x62
 434 102 l 1
 364 21 308 -12 239 -12 c 0
 161 -12 121 27 121 102 c 0
 121 123 124 148 130 177 c 2
 188 469 l 1
 128 469 l 1
 140 530 l 1
 297 530 l 1
 228 188 l 2
 224 166 221 141 221 127 c 0
 221 86 242 64 283 64 c 0
 334 64 385 101 451 186 c 1
 508 469 l 1
 454 469 l 1xa2
 465 530 l 1
469 848 m 0
 522 848 560 811 560 759 c 0
 560 689 496 626 424 626 c 0
 371 626 334 663 334 715 c 0x1d
 334 785 398 848 469 848 c 0
461 806 m 0
 416 806 377 767 377 723 c 0
 377 687 396 668 432 668 c 0
 477 668 517 707 517 752 c 0
 517 787 498 806 461 806 c 0
EndSplineSet
EndChar
StartChar: Uogonek
Encoding: 293 370 65
Width: 600
Flags: W
HStem: -181 46<292.5 362> -18 60<299 366> 0 20 703 20<174 398 398 398 527 714 714 714>
VStem: 130 97<126.5 164> 235 70<-111 -95>
LayerCount: 2
Fore
SplineSet
223 663 m 1x5c
 162 663 l 1
 174 723 l 1
 398 723 l 1
 385 663 l 1
 319 663 l 1
 238 256 l 2
 231 219 227 187 227 162 c 0
 227 91 269 42 329 42 c 0
 414 42 472 115 501 260 c 2
 582 663 l 1
 515 663 l 1
 527 723 l 1
 714 723 l 1
 702 663 l 1
 642 663 l 1
 558 242 l 2
 525 77 431 -18 301 -18 c 0
 195 -18 130 45 130 147 c 0
 130 181 135 226 144 269 c 2
 223 663 l 1x5c
335 0 m 1xac
 387 0 l 1
 330 -33 305 -62 305 -99 c 0
 305 -123 321 -135 353 -135 c 0
 371 -135 386 -132 399 -127 c 1
 391 -167 l 1
 368 -177 347 -181 321 -181 c 0
 264 -181 235 -160 235 -118 c 0
 235 -72 266 -36 335 0 c 1xac
EndSplineSet
EndChar
StartChar: uogonek
Encoding: 327 371 127
Width: 600
Flags: W
HStem: -181 46<414.5 484> -12 76<262.5 273.5> 0 20 0 20 510 20<140 297 297 297 465 616 616 616>
VStem: 121 70 121 100<106.5 112.5>
LayerCount: 2
Fore
SplineSet
465 530 m 1
 616 530 l 1
 522 60 l 1
 582 60 l 1
 570 0 l 1
 413 0 l 1x2a
 434 102 l 1
 364 21 308 -12 239 -12 c 0
 161 -12 121 27 121 102 c 0
 121 123 124 148 130 177 c 2
 188 469 l 1
 128 469 l 1
 140 530 l 1
 297 530 l 1
 228 188 l 2
 224 166 221 141 221 127 c 0
 221 86 242 64 283 64 c 0
 334 64 385 101 451 186 c 1
 508 469 l 1
 454 469 l 1x4a
 465 530 l 1
457 0 m 1
 509 0 l 1
 452 -32 427 -62 427 -99 c 0
 427 -123 443 -135 475 -135 c 0
 493 -135 507 -132 521 -127 c 1
 513 -167 l 1
 490 -177 468 -181 443 -181 c 0
 386 -181 357 -160 357 -118 c 0x94
 357 -72 388 -35 457 0 c 1
EndSplineSet
EndChar
StartChar: Zacute
Encoding: 278 377 49
Width: 600
Flags: MW
HStem: 0 66<72 85 85 85 193 480> 663 60<274 546 274 274 654 654>
LayerCount: 2
Fore
SplineSet
72 0 m 1
 85 66 l 1
 546 663 l 1
 274 663 l 1
 247 530 l 1
 187 530 l 1
 226 723 l 1
 666 723 l 1
 654 663 l 1
 193 66 l 1
 480 66 l 1
 509 211 l 1
 570 211 l 1
 528 0 l 1
 72 0 l 1
396 783 m 1
 533 940 l 1
 644 940 l 1
 456 783 l 1
 396 783 l 1
EndSplineSet
EndChar
StartChar: zdotaccent
Encoding: 316 380 115
Width: 600
Flags: MW
HStem: 0 69<60 74 74 74 190 487> 469 61<232 493 232 232 609 609> 627 96<374 490 393 470>
LayerCount: 2
Fore
SplineSet
60 0 m 1
 74 69 l 1
 493 469 l 1
 232 469 l 1
 213 373 l 1
 153 373 l 1
 184 530 l 1
 622 530 l 1
 609 469 l 1
 190 69 l 1
 487 69 l 1
 507 168 l 1
 567 168 l 1
 534 0 l 1xc0
 60 0 l 1
374 627 m 1
 393 723 l 1
 490 723 l 1
 470 627 l 1x20
 374 627 l 1
EndSplineSet
EndChar
StartChar: zcaron
Encoding: 315 382 114
Width: 600
Flags: MW
HStem: 0 69<60 74 74 74 190 487> 469 61<232 493 232 232 609 609>
LayerCount: 2
Fore
SplineSet
60 0 m 1
 74 69 l 1
 493 469 l 1
 232 469 l 1
 213 373 l 1
 153 373 l 1
 184 530 l 1
 622 530 l 1
 609 469 l 1
 190 69 l 1
 487 69 l 1
 507 168 l 1
 567 168 l 1
 534 0 l 1xc0
 60 0 l 1
632 783 m 1
 476 626 l 1
 369 626 l 1
 275 783 l 1
 335 783 l 1
 433 684 l 1
 435 684 l 1
 572 783 l 1
 632 783 l 1
EndSplineSet
EndChar
StartChar: florin
Encoding: 131 402 216
Width: 600
Flags: MW
HStem: 356 60<139 212 127 236 332 439> 678 63<511.5 538>
LayerCount: 2
Fore
SplineSet
12 -145 m 1
 212 356 l 1
 127 356 l 1
 139 416 l 1
 236 416 l 1
 262 484 l 2
 330 654 439 741 584 741 c 0
 609 741 641 738 674 732 c 1
 642 570 l 1
 581 570 l 1
 589 666 l 1
 564 674 546 678 530 678 c 0
 468 678 416 627 376 526 c 2
 332 416 l 1
 451 416 l 1
 439 356 l 1
 308 356 l 1
 109 -145 l 1
 12 -145 l 1
EndSplineSet
EndChar
StartChar: Scommaaccent
Encoding: 332 536 132
Width: 600
Flags: MW
HStem: -211 42<245.5 270.5 244 291> -18 60<285.5 353.5 285.5 369.5> 681 60<398 458>
VStem: 195 98<515.5 575.5 515.5 577> 311 67<-143 -119.5> 478 100<167.5 227>
LayerCount: 2
Fore
SplineSet
80 30 m 1
 115 205 l 1
 176 205 l 1
 164 90 l 1
 223 56 264 42 307 42 c 0
 400 42 478 118 478 209 c 0
 478 245 454 275 401 306 c 2
 318 354 l 2
 224 409 195 445 195 507 c 0
 195 647 301 741 459 741 c 0
 519 741 572 730 633 705 c 1
 598 531 l 1
 538 531 l 1
 548 645 l 1
 511 670 477 681 439 681 c 0
 357 681 293 617 293 534 c 0
 293 497 308 480 383 434 c 2
 456 390 l 2
 557 329 578 303 578 240 c 0
 578 95 451 -18 288 -18 c 0
 219 -18 157 -4 80 30 c 1
196 -206 m 1
 204 -164 l 1
 221 -167 237 -169 251 -169 c 0
 290 -169 311 -155 311 -131 c 0
 311 -108 290 -96 243 -92 c 1
 250 -54 l 1
 339 -56 378 -77 378 -124 c 0
 378 -175 327 -211 255 -211 c 0
 236 -211 217 -209 196 -206 c 1
EndSplineSet
EndChar
StartChar: scommaaccent
Encoding: 310 537 104
Width: 600
Flags: MW
HStem: -211 42<256 281 254.5 301> -12 61<306 372 306 377> 482 60<349 417>
VStem: 161 95<375 415.5> 206 67 464 101<122.5 160>
LayerCount: 2
Fore
SplineSet
90 30 m 1
 119 175 l 1
 179 175 l 1
 173 85 l 1
 237 59 282 49 330 49 c 0
 414 49 464 84 464 143 c 0
 464 177 442 196 388 211 c 2
 294 238 l 2
 203 263 161 302 161 360 c 0
 161 471 257 542 408 542 c 0
 481 542 540 531 596 507 c 1
 568 367 l 1
 508 367 l 1
 513 456 l 1
 479 474 442 482 392 482 c 0
 306 482 256 449 256 390 c 0
 256 360 283 339 344 322 c 2
 438 296 l 2
 523 273 565 234 565 178 c 0
 565 67 455 -12 299 -12 c 0x74
 224 -12 160 1 90 30 c 1
206 -206 m 1
 215 -164 l 1
 232 -167 248 -169 261 -169 c 0
 301 -169 322 -155 322 -131 c 0
 322 -108 301 -97 253 -92 c 1
 261 -54 l 1
 350 -56 389 -77 389 -124 c 0
 389 -175 337 -211 265 -211 c 0x88
 247 -211 227 -209 206 -206 c 1
EndSplineSet
EndChar
StartChar: circumflex
Encoding: 136 710 286
Width: 600
Flags: W
LayerCount: 2
Fore
SplineSet
247 626 m 1
 404 783 l 1
 510 783 l 1
 604 626 l 1
 544 626 l 1
 446 725 l 1
 445 725 l 1
 308 626 l 1
 247 626 l 1
EndSplineSet
EndChar
StartChar: caron
Encoding: 345 711 287
Width: 600
Flags: W
LayerCount: 2
Fore
SplineSet
635 783 m 1
 479 626 l 1
 372 626 l 1
 278 783 l 1
 338 783 l 1
 436 684 l 1
 438 684 l 1
 575 783 l 1
 635 783 l 1
EndSplineSet
EndChar
StartChar: breve
Encoding: 346 728 288
Width: 600
Flags: MW
HStem: 629 69<410.5 469.5 410.5 474>
LayerCount: 2
Fore
SplineSet
286 771 m 1
 346 771 l 1
 352 720 381 698 440 698 c 0
 499 698 537 720 563 771 c 1
 623 771 l 1
 578 671 520 629 428 629 c 0
 378 629 342 642 318 669 c 0x80
 296 693 288 719 286 771 c 1
EndSplineSet
EndChar
StartChar: dotaccent
Encoding: 343 729 282
Width: 600
Flags: MW
HStem: 627 96<377 493 396 473>
LayerCount: 2
Fore
SplineSet
377 627 m 1
 396 723 l 1
 493 723 l 1
 473 627 l 1x80
 377 627 l 1
EndSplineSet
EndChar
StartChar: ring
Encoding: 344 730 283
Width: 600
Flags: MW
HStem: 626 42<416 456.5 416 462> 806 42<440.5 481.5>
VStem: 336 43<705 745 705 750> 519 43<729.5 769.5>
LayerCount: 2
Fore
SplineSet
471 848 m 0
 524 848 562 811 562 759 c 0
 562 689 498 626 426 626 c 0
 373 626 336 663 336 715 c 0xf0
 336 785 400 848 471 848 c 0
463 806 m 0
 418 806 379 767 379 723 c 0
 379 687 398 668 434 668 c 0
 479 668 519 707 519 752 c 0
 519 787 500 806 463 806 c 0
EndSplineSet
EndChar
StartChar: ogonek
Encoding: 348 731 292
Width: 600
Flags: MW
HStem: -181 46<252.5 322> 0 20
VStem: 195 70<-111 -95>
LayerCount: 2
Fore
SplineSet
295 0 m 1
 347 0 l 1
 290 -32 265 -62 265 -99 c 0
 265 -123 281 -135 313 -135 c 0
 331 -135 345 -132 359 -127 c 1
 351 -167 l 1
 328 -177 306 -181 281 -181 c 0
 224 -181 195 -160 195 -118 c 0xe0
 195 -72 226 -35 295 0 c 1
EndSplineSet
EndChar
StartChar: tilde
Encoding: 152 732 289
Width: 600
Flags: W
HStem: 627 59<501.5 519 501.5 526> 682 60<355.5 372.5>
LayerCount: 2
Fore
SplineSet
317 627 m 1
 263 627 l 1
 285 707 319 742 377 742 c 0x40
 400 742 420 736 439 723 c 2
 464 704 l 2
 482 692 496 686 507 686 c 0
 531 686 546 703 557 742 c 1
 611 742 l 1
 589 661 555 627 497 627 c 0x80
 475 627 454 633 436 646 c 2
 410 664 l 2
 393 676 378 682 367 682 c 0x40
 344 682 328 665 317 627 c 1
EndSplineSet
EndChar
StartChar: hungarumlaut
Encoding: 347 733 290
Width: 600
Flags: W
LayerCount: 2
Fore
SplineSet
234 626 m 1
 383 783 l 1
 476 783 l 1
 289 626 l 1
 234 626 l 1
406 626 m 1
 555 783 l 1
 648 783 l 1
 460 626 l 1
 406 626 l 1
EndSplineSet
EndChar
StartChar: endash
Encoding: 150 8211 243
Width: 600
Flags: MW
HStem: 265 72<112 608 126 594>
LayerCount: 2
Fore
SplineSet
112 265 m 1
 126 337 l 1
 608 337 l 1
 594 265 l 1
 112 265 l 1
EndSplineSet
EndChar
StartChar: emdash
Encoding: 151 8212 244
Width: 600
Flags: MW
HStem: 265 60<53 665 65 653>
LayerCount: 2
Fore
SplineSet
53 265 m 1
 65 325 l 1
 665 325 l 1
 653 265 l 1
 53 265 l 1
EndSplineSet
EndChar
StartChar: quoteleft
Encoding: 145 8216 228
Width: 600
Flags: W
LayerCount: 2
Fore
SplineSet
489 615 m 1
 460 470 l 1
 315 470 l 1
 333 558 l 2
 360 695 422 765 520 771 c 1
 510 723 l 1
 465 715 450 695 428 615 c 1
 489 615 l 1
EndSplineSet
EndChar
StartChar: quoteright
Encoding: 146 8217 268
Width: 600
Flags: W
LayerCount: 2
Fore
SplineSet
360 626 m 1
 389 771 l 1
 533 771 l 1
 516 683 l 2
 488 546 426 476 328 470 c 1
 338 518 l 1
 384 526 398 546 420 626 c 1
 360 626 l 1
EndSplineSet
EndChar
StartChar: quotesinglbase
Encoding: 130 8218 267
Width: 600
Flags: MW
HStem: 0 20
LayerCount: 2
Fore
SplineSet
234 0 m 1
 263 145 l 1
 408 145 l 1
 390 57 l 2
 362 -80 301 -149 203 -156 c 1
 213 -108 l 1
 259 -99 274 -79 294 0 c 1
 234 0 l 1
EndSplineSet
EndChar
StartChar: quotedblleft
Encoding: 147 8220 230
Width: 600
Flags: W
LayerCount: 2
Fore
SplineSet
214 506 m 1
 238 628 l 2
 257 719 306 767 388 771 c 1
 378 723 l 1
 342 715 321 693 313 654 c 2
 307 627 l 1
 359 627 l 1
 335 506 l 1
 214 506 l 1
455 506 m 1
 480 628 l 2
 498 719 547 767 629 771 c 1
 619 723 l 1
 583 715 562 693 554 654 c 2
 548 627 l 1
 600 627 l 1
 576 506 l 1
 455 506 l 1
EndSplineSet
EndChar
StartChar: quotedblright
Encoding: 148 8221 229
Width: 600
Flags: W
LayerCount: 2
Fore
SplineSet
642 771 m 1
 617 649 l 2
 599 558 549 510 468 506 c 1
 478 554 l 1
 514 562 535 584 543 623 c 2
 548 650 l 1
 497 650 l 1
 521 771 l 1
 642 771 l 1
401 771 m 1
 376 649 l 2
 358 558 309 510 227 506 c 1
 237 554 l 1
 272 561 294 584 302 623 c 2
 307 650 l 1
 256 650 l 1
 280 771 l 1
 401 771 l 1
EndSplineSet
EndChar
StartChar: quotedblbase
Encoding: 132 8222 231
Width: 600
Flags: MW
HStem: 0 20
LayerCount: 2
Fore
SplineSet
512 121 m 1
 487 -1 l 2
 469 -92 419 -140 338 -144 c 1
 347 -96 l 1
 383 -88 404 -66 412 -27 c 2
 418 0 l 1
 367 0 l 1
 391 121 l 1
 512 121 l 1
270 121 m 1
 246 -1 l 2
 227 -92 178 -140 97 -144 c 1
 107 -96 l 1
 142 -89 164 -66 172 -27 c 2
 177 0 l 1
 126 0 l 1
 150 121 l 1
 270 121 l 1
EndSplineSet
EndChar
StartChar: dagger
Encoding: 134 8224 251
Width: 600
Flags: MW
HStem: 703 20<397 493 493 493>
LayerCount: 2
Fore
SplineSet
223 -145 m 1
 345 404 l 1
 163 397 l 1
 177 470 l 1
 357 464 l 1
 397 723 l 1
 493 723 l 1
 429 464 l 1
 611 470 l 1
 597 397 l 1
 417 404 l 1
 320 -145 l 1
 223 -145 l 1
EndSplineSet
EndChar
StartChar: daggerdbl
Encoding: 135 8225 252
Width: 600
Flags: MW
HStem: 703 20<397 493 493 493>
LayerCount: 2
Fore
SplineSet
223 -145 m 1
 287 114 l 1
 105 108 l 1
 120 181 l 1
 299 175 l 1
 345 404 l 1
 163 397 l 1
 177 470 l 1
 357 464 l 1
 397 723 l 1
 493 723 l 1
 429 464 l 1
 611 470 l 1
 597 397 l 1
 417 404 l 1
 372 175 l 1
 553 181 l 1
 539 108 l 1
 359 114 l 1
 320 -145 l 1
 223 -145 l 1
EndSplineSet
EndChar
StartChar: bullet
Encoding: 149 8226 299
Width: 600
Flags: MW
HStem: 522 20<365.5 446.5>
LayerCount: 2
Fore
SplineSet
412 542 m 0
 481 542 530 494 530 426 c 0
 530 335 446 253 352 253 c 0
 284 253 235 302 235 369 c 0
 235 460 319 542 412 542 c 0
EndSplineSet
EndChar
StartChar: ellipsis
Encoding: 133 8230 225
Width: 600
Flags: MW
HStem: 0 121<40 185 64 161 264 360 64 240 464 561>
LayerCount: 2
Fore
SplineSet
40 0 m 1
 64 121 l 1
 185 121 l 1
 161 0 l 1
 40 0 l 1
240 0 m 1
 264 121 l 1
 385 121 l 1
 360 0 l 1
 240 0 l 1
440 0 m 1
 464 121 l 1
 584 121 l 1
 561 0 l 1
 440 0 l 1
EndSplineSet
EndChar
StartChar: perthousand
Encoding: 137 8240 279
Width: 600
Flags: W
HStem: 0 20 0 45<283 309.5 283 315 505 531.5> 256 45<316.5 343 538.5 565> 420 45<181 207.5 181 213> 675 46<214.5 241> 703 20<460 510 510 510>
VStem: 115 46<500.5 556.5 500.5 570> 217 46<81 137.5 81 150> 260 46<584.5 639.5> 362 46<165 220.5> 439 46<81 137.5 81 150> 584 46<165 220.5>
LayerCount: 2
Fore
SplineSet
241 721 m 0x9a80
 284 721 306 689 306 626 c 0
 306 515 247 420 179 420 c 0
 136 420 115 452 115 515 c 0
 115 625 174 721 241 721 c 0x9a80
232 675 m 0
 197 675 161 595 161 518 c 0
 161 483 171 465 191 465 c 0
 224 465 260 547 260 622 c 0
 260 657 250 675 232 675 c 0
14 0 m 1
 460 723 l 1
 510 723 l 1xa570
 63 0 l 1
 14 0 l 1
343 301 m 0
 386 301 408 269 408 206 c 0
 408 95 349 0 281 0 c 0x6170
 238 0 217 32 217 95 c 0
 217 205 276 301 343 301 c 0
334 256 m 0
 299 256 263 176 263 99 c 0
 263 63 273 45 293 45 c 0
 326 45 362 127 362 203 c 0
 362 238 352 256 334 256 c 0
565 301 m 0
 609 301 630 269 630 206 c 0
 630 95 572 0 503 0 c 0
 461 0 439 32 439 95 c 0
 439 205 498 301 565 301 c 0
556 256 m 0
 521 256 485 176 485 99 c 0
 485 63 495 45 515 45 c 0
 548 45 584 127 584 203 c 0
 584 238 574 256 556 256 c 0
EndSplineSet
EndChar
StartChar: guilsinglleft
Encoding: 139 8249 239
Width: 600
Flags: W
LayerCount: 2
Fore
SplineSet
550 440 m 1
 301 265 l 1
 480 90 l 1
 429 48 l 1
 167 265 l 1
 516 482 l 1
 550 440 l 1
EndSplineSet
EndChar
StartChar: guilsinglright
Encoding: 155 8250 238
Width: 600
Flags: W
LayerCount: 2
Fore
SplineSet
156 90 m 1
 405 265 l 1
 226 440 l 1
 277 482 l 1
 538 265 l 1
 190 48 l 1
 156 90 l 1
EndSplineSet
EndChar
StartChar: fraction
Encoding: 342 8260 277
Width: 600
Flags: MW
HStem: -18 20 721 20<603 672 672 672>
LayerCount: 2
Fore
SplineSet
72 -18 m 1
 603 741 l 1
 672 741 l 1
 139 -18 l 1
 72 -18 l 1
EndSplineSet
EndChar
StartChar: Euro
Encoding: 128 8364 217
Width: 600
Flags: MW
HStem: -18 66<334 388.5> 262 60<93 121 56 126 230 465> 418 61<124 147 87 167 272 561> 681 60<459.5 512.5>
LayerCount: 2
Fore
SplineSet
147 418 m 1
 87 418 l 1
 124 479 l 1
 167 479 l 1
 205 567 233 611 280 656 c 0
 341 713 415 741 504 741 c 0
 559 741 613 732 683 710 c 1
 656 572 l 1
 595 572 l 1
 598 655 l 1
 563 673 531 681 494 681 c 0
 394 681 327 620 272 479 c 1
 598 479 l 1
 561 418 l 1
 251 418 l 1
 242 386 235 349 230 322 c 1
 502 322 l 1
 465 262 l 1
 225 262 l 1
 224 232 l 2
 221 124 286 48 382 48 c 0
 443 48 502 68 574 114 c 1
 558 36 l 1
 479 -2 420 -18 357 -18 c 0
 282 -18 223 5 183 50 c 0
 156 79 136 125 128 174 c 0
 124 193 122 222 121 262 c 1
 56 262 l 1
 93 322 l 1
 126 322 l 1
 131 353 138 387 147 418 c 1
EndSplineSet
EndChar
StartChar: trademark
Encoding: 153 8482 264
Width: 600
Flags: MW
HStem: 703 20<166 392 392 392 416 519 519 519 631 729 729 729>
LayerCount: 2
Fore
SplineSet
142 361 m 1
 151 406 l 1
 188 406 l 1
 243 678 l 1
 200 678 l 1
 191 630 l 1
 147 630 l 1
 166 723 l 1
 392 723 l 1
 373 630 l 1
 330 630 l 1
 340 678 l 1
 297 678 l 1
 243 406 l 1
 281 406 l 1
 271 361 l 1
 142 361 l 1
344 361 m 1
 353 406 l 1
 381 406 l 1
 435 678 l 1
 407 678 l 1
 416 723 l 1
 519 723 l 1
 536 506 l 1
 631 723 l 1
 729 723 l 1
 720 678 l 1
 692 678 l 1
 638 406 l 1
 665 406 l 1
 657 361 l 1
 577 361 l 1
 634 644 l 1
 633 644 l 1
 533 428 l 1
 491 428 l 1
 475 630 l 1
 474 630 l 1
 420 361 l 1
 344 361 l 1
EndSplineSet
EndChar
StartChar: minus
Encoding: 341 8722 260
Width: 600
Flags: MW
HStem: 265 72<101 619 115 604>
LayerCount: 2
Fore
SplineSet
101 265 m 1
 115 337 l 1
 619 337 l 1
 604 265 l 1
 101 265 l 1
EndSplineSet
EndChar
StartChar: fi
Encoding: 336 64257 197
Width: 600
Flags: W
HStem: 0 20 458 66<142 186 129 199 295 505> 657 96<424 660 564 641 545 660> 727 57<375.5 400>
LayerCount: 2
Fore
SplineSet
34 0 m 1xd0
 46 60 l 1
 106 60 l 1
 186 458 l 1
 129 458 l 1
 142 524 l 1
 199 524 l 1
 216 609 l 2
 238 716 311 784 406 784 c 0xd0
 437 784 466 777 505 760 c 1
 485 657 l 1
 424 657 l 1x20
 424 717 l 1
 413 724 405 727 395 727 c 0
 356 727 330 696 318 635 c 2
 295 524 l 1
 615 524 l 1
 522 60 l 1
 582 60 l 1
 570 0 l 1
 366 0 l 1
 377 60 l 1
 426 60 l 1
 505 458 l 1
 282 458 l 1
 202 60 l 1
 257 60 l 1
 245 0 l 1
 34 0 l 1xd0
545 657 m 1x20
 564 753 l 1
 660 753 l 1
 641 657 l 1
 545 657 l 1x20
EndSplineSet
EndChar
StartChar: fl
Encoding: 337 64258 198
Width: 600
Flags: MW
HStem: 0 20 452 66<140 184 127 198 294 426> 726 57<399 456.5>
LayerCount: 2
Fore
SplineSet
294 518 m 1
 439 518 l 1
 426 452 l 1
 281 452 l 1
 202 60 l 1
 257 60 l 1
 245 0 l 1
 34 0 l 1
 46 60 l 1
 106 60 l 1
 184 452 l 1
 127 452 l 1
 140 518 l 1
 198 518 l 1
 216 609 l 2
 239 725 315 783 444 783 c 0
 469 783 510 780 538 775 c 2
 568 771 l 1
 664 771 l 1
 522 60 l 1
 582 60 l 1
 570 0 l 1
 366 0 l 1
 377 60 l 1
 426 60 l 1
 555 708 l 1
 512 721 476 726 437 726 c 0
 361 726 331 704 318 635 c 2
 294 518 l 1
EndSplineSet
EndChar
StartChar: commaaccent
Encoding: 350 -1 294
Width: 600
Flags: MW
HStem: -211 42<235 260 233.5 280>
VStem: 301 67<-143 -119.5>
LayerCount: 2
Fore
SplineSet
185 -206 m 1
 194 -164 l 1
 211 -167 227 -169 240 -169 c 0
 280 -169 301 -155 301 -131 c 0
 301 -108 280 -97 232 -92 c 1
 240 -54 l 1
 329 -56 368 -77 368 -124 c 0
 368 -175 316 -211 244 -211 c 0xc0
 226 -211 206 -209 185 -206 c 1
EndSplineSet
EndChar
